<!DOCTYPE svg PUBLIC "-//W3C//DTD SVG 20010904//EN" "http://www.w3.org/TR/2001/REC-SVG-20010904/DTD/svg10.dtd">
<svg version="1.0" xmlns="http://www.w3.org/2000/svg" width="528px" height="459px" viewBox="0 0 5280 4590" preserveAspectRatio="xMidYMid meet">

	
<g id="layer1" fill="#bf654c" stroke="none">
 <path d="M2556 3363 c-4 -5 -12 -9 -17 -9 -5 -1 -11 -3 -14 -4 -3 -1 -9 -3 -15 -4 -5 0 -10 -4 -10 -8 0 -5 0 -11 0 -14 0 -4 7 -1 15 6 8 7 15 9 15 5 0 -4 6 -3 13 3 6 6 15 11 20 11 8 1 11 11 5 17 -3 2 -8 1 -12 -3z"/>
 <path d="M2905 3160 c-8 -12 20 -24 35 -15 6 3 8 11 5 16 -8 12 -32 12 -40 -1z"/>
 <path d="M2066 2911 c-4 -5 -2 -12 4 -16 6 -4 8 -10 5 -15 -3 -5 -1 -11 4 -14 5 -4 12 -2 15 3 4 5 2 12 -4 16 -6 4 -8 10 -5 15 3 5 1 11 -4 14 -5 4 -12 2 -15 -3z"/>
 <path d="M2406 2861 c-21 -21 -34 -41 -28 -45 5 -3 12 -2 16 2 4 4 13 7 19 7 7 1 11 6 10 13 -2 6 8 19 22 28 14 9 22 20 19 25 -9 15 -19 10 -58 -30z"/>
 <path d="M2865 2665 c-58 -23 -141 -97 -130 -115 3 -4 40 3 82 17 43 14 113 28 156 32 87 7 105 23 37 32 -35 5 -38 6 -14 7 50 3 92 -9 97 -27 5 -21 96 -46 111 -31 14 14 -39 60 -101 90 -61 29 -160 27 -238 -5z"/>
 <path d="M2145 2571 c-7 -12 12 -24 25 -16 11 7 4 25 -10 25 -5 0 -11 -4 -15 -9z"/>
 <path d="M3035 2548 c-77 -5 -165 -10 -195 -11 -30 -1 -56 -6 -58 -12 -2 -5 20 -16 49 -24 46 -13 59 -13 118 1 41 11 87 15 121 11 59 -5 137 17 125 37 -3 5 -9 9 -13 8 -4 0 -70 -5 -147 -10z"/>
 <path d="M2961 2271 c-14 -11 -19 -21 -13 -25 5 -3 20 2 33 12 29 24 11 36 -20 13z"/>
 <path d="M3116 2261 c-4 -5 -2 -12 4 -16 5 -3 10 -3 10 1 0 3 6 2 13 -3 16 -12 37 -11 37 2 0 6 -8 10 -17 10 -10 0 -23 4 -30 8 -6 4 -14 3 -17 -2z"/>
 <path d="M2843 2248 c-4 -8 5 -12 21 -9 5 1 17 -5 26 -14 17 -16 19 -15 30 4 8 16 8 22 -2 26 -19 6 -69 1 -75 -7z"/>
 <path d="M2789 2226 c-5 -23 -2 -46 5 -48 12 -4 15 41 4 48 -4 3 -8 3 -9 0z"/>
 <path d="M2816 2171 c-4 -5 -2 -12 4 -16 6 -4 8 -10 5 -15 -3 -5 -1 -11 4 -14 5 -4 12 -2 15 3 4 5 2 12 -4 16 -6 4 -8 10 -5 15 3 5 1 11 -4 14 -5 4 -12 2 -15 -3z"/>
 <path d="M3595 2126 c-11 -8 -14 -16 -8 -19 6 -4 18 0 28 7 11 8 14 16 8 19 -6 4 -18 0 -28 -7z"/>
 <path d="M3621 2096 c-7 -8 -8 -17 -3 -20 6 -3 15 1 21 8 7 8 8 17 3 20 -6 3 -15 -1 -21 -8z"/>
 <path d="M2851 2076 c-7 -8 -8 -17 -3 -20 6 -3 15 1 21 8 7 8 8 17 3 20 -6 3 -15 -1 -21 -8z"/>
 <path d="M3605 2059 c-3 -3 2 -15 9 -25 14 -18 15 -18 35 0 12 11 19 22 16 24 -8 8 -56 9 -60 1z"/>
 <path d="M3665 1880 c-4 -6 -3 -16 3 -22 6 -6 12 -6 17 2 4 6 3 16 -3 22 -6 6 -12 6 -17 -2z"/>
 <path d="M2078 1873 c-7 -14 -3 -33 6 -33 12 -1 17 28 6 35 -5 3 -10 2 -12 -2z"/>
 <path d="M3644 1776 c-3 -8 -2 -21 2 -28 5 -7 9 -16 9 -20 0 -5 3 -8 8 -8 7 0 8 3 6 18 -1 4 -1 14 0 24 3 22 -18 33 -25 14z"/>
 <path d="M3471 1746 c-7 -8 -8 -17 -3 -20 6 -3 15 1 21 8 7 8 8 17 3 20 -6 3 -15 -1 -21 -8z"/>
 <path d="M2705 1739 c-8 -11 6 -16 42 -15 18 1 34 6 35 11 3 12 -70 16 -77 4z"/>
 <path d="M3517 1744 c-9 -9 12 -46 23 -39 4 3 7 13 6 22 -3 18 -18 27 -29 17z"/>
 <path d="M2064 1718 c-6 -9 -4 -10 26 -11 11 -1 19 3 18 8 -4 12 -37 14 -44 3z"/>
 <path d="M2455 1701 c-4 -8 -1 -19 8 -28 19 -20 30 -1 13 22 -10 14 -15 15 -21 6z"/>
 <path d="M2054 1688 c-6 -9 -4 -10 26 -11 11 -1 19 3 18 8 -4 12 -37 14 -44 3z"/>
 <path d="M2835 1691 c-7 -12 12 -24 25 -16 11 7 4 25 -10 25 -5 0 -11 -4 -15 -9z"/>
 <path d="M2030 1631 c-6 -12 -6 -22 -1 -26 6 -3 15 3 21 14 6 12 6 22 1 26 -6 3 -15 -3 -21 -14z"/>
 <path d="M3326 1611 c-4 -5 -2 -12 4 -16 5 -3 10 -3 10 1 0 3 6 1 13 -5 8 -6 17 -7 21 -3 4 4 12 7 17 7 5 0 9 3 9 8 0 4 0 10 0 13 0 4 -6 2 -12 -3 -15 -11 -28 -11 -45 0 -6 4 -14 3 -17 -2z"/>
 <path d="M3515 1611 c-7 -12 12 -24 25 -16 11 7 4 25 -10 25 -5 0 -11 -4 -15 -9z"/>
 <path d="M2825 1600 c-7 -12 32 -33 45 -25 6 4 8 10 5 14 -7 13 -44 20 -50 11z"/>
 <path d="M2785 1591 c-3 -6 -10 -9 -15 -6 -5 3 -12 1 -15 -5 -5 -8 -11 -8 -20 0 -17 14 -32 -7 -17 -22 8 -8 16 -7 27 2 8 7 15 9 15 5 0 -4 6 -3 13 3 6 6 15 11 20 11 8 1 11 11 4 17 -3 3 -8 0 -12 -5z"/>
 <path d="M3706 1582 c-3 -6 1 -15 8 -21 8 -7 17 -8 20 -3 3 6 -1 15 -8 21 -8 7 -17 8 -20 3z"/>
 <path d="M1975 1570 c-4 -6 -3 -16 3 -22 6 -6 12 -6 17 2 4 6 3 16 -3 22 -6 6 -12 6 -17 -2z"/>
 <path d="M2327 1564 c-9 -9 22 -66 32 -59 5 3 7 14 4 25 -6 23 -27 43 -36 34z"/>
 <path d="M2426 1561 c-9 -14 32 -34 51 -26 10 3 13 9 7 14 -16 15 -52 22 -58 12z"/>
 <path d="M2555 1551 c-7 -12 12 -24 25 -16 11 7 4 25 -10 25 -5 0 -11 -4 -15 -9z"/>
 <path d="M3621 1536 c-7 -8 -8 -17 -3 -20 6 -3 15 1 21 8 7 8 8 17 3 20 -6 3 -15 -1 -21 -8z"/>
 <path d="M2366 1491 c-6 -8 5 -20 31 -35 23 -13 22 12 -2 28 -13 9 -26 12 -29 7z"/>
 <path d="M2436 1451 c-4 -5 -2 -12 4 -16 5 -3 10 -3 10 1 0 3 6 1 14 -5 10 -8 16 -9 21 -1 3 5 4 11 1 11 -3 1 -9 2 -13 3 -5 1 -13 5 -20 9 -6 4 -14 3 -17 -2z"/>
 <path d="M3655 1400 c-4 -6 -3 -16 3 -22 6 -6 12 -6 17 2 4 6 3 16 -3 22 -6 6 -12 6 -17 -2z"/>
 <path d="M3185 840 c-8 -12 20 -24 35 -15 6 3 8 11 5 16 -8 12 -32 12 -40 -1z"/>
 <path d="M3245 840 c-8 -13 20 -24 41 -16 20 8 9 26 -16 26 -10 0 -22 -5 -25 -10z"/>
 <path d="M3535 840 c-4 -6 -10 -8 -15 -5 -5 3 -11 1 -14 -4 -4 -5 -2 -12 3 -15 5 -4 12 -2 16 4 4 6 10 8 15 5 5 -3 11 -1 14 4 4 5 2 12 -3 15 -5 4 -12 2 -16 -4z"/>
 <path d="M2715 810 c-8 -12 20 -24 35 -15 6 3 8 11 5 16 -8 12 -32 12 -40 -1z"/>
 </g>
<g id="layer2" fill="#a46e4e" stroke="none">
 <path d="M2895 3431 c-7 -12 12 -24 25 -16 11 7 4 25 -10 25 -5 0 -11 -4 -15 -9z"/>
 <path d="M2815 3421 c-7 -12 12 -24 25 -16 11 7 4 25 -10 25 -5 0 -11 -4 -15 -9z"/>
 <path d="M3104 3416 c-4 -10 -2 -22 4 -28 8 -8 13 -7 18 6 4 10 2 22 -4 28 -8 8 -13 7 -18 -6z"/>
 <path d="M2455 3326 c-11 -8 -14 -16 -8 -19 6 -4 18 0 28 7 11 8 14 16 8 19 -6 4 -18 0 -28 -7z"/>
 <path d="M2855 3161 c-7 -13 17 -24 40 -19 9 1 16 8 16 13 0 14 -48 19 -56 6z"/>
 <path d="M3156 3161 c-4 -5 -2 -12 4 -16 6 -4 8 -10 5 -15 -3 -5 -1 -11 4 -14 5 -4 12 -2 15 3 4 5 2 12 -4 16 -6 4 -8 10 -5 15 3 5 1 11 -4 14 -5 4 -12 2 -15 -3z"/>
 <path d="M3009 3153 c-1 -4 -1 -11 0 -15 0 -4 -5 -5 -13 -2 -17 7 -30 -12 -15 -22 6 -3 20 3 31 14 13 13 16 22 9 26 -6 4 -12 4 -12 -1z"/>
 <path d="M2737 3134 c-23 -12 -26 -18 -17 -34 10 -19 13 -19 41 -5 25 13 28 19 19 35 -6 11 -12 20 -13 20 -1 -1 -14 -8 -30 -16z"/>
 <path d="M2805 3131 c-7 -12 12 -24 25 -16 11 7 4 25 -10 25 -5 0 -11 -4 -15 -9z"/>
 <path d="M3070 3121 c-6 -12 -6 -22 -1 -26 6 -3 15 3 21 14 6 12 6 22 1 26 -6 3 -15 -3 -21 -14z"/>
 <path d="M2687 3103 c-4 -6 0 -18 7 -28 8 -11 16 -14 19 -8 4 6 0 18 -7 28 -8 11 -16 14 -19 8z"/>
 <path d="M3135 3100 c-3 -6 -10 -8 -15 -5 -5 3 -11 1 -14 -4 -4 -5 -2 -12 3 -15 5 -4 13 -2 16 4 5 8 11 8 20 0 8 -7 16 -7 19 -2 3 6 -1 15 -8 21 -10 8 -16 9 -21 1z"/>
 <path d="M2630 3055 c-9 -11 -7 -16 8 -24 15 -8 23 -7 32 4 9 11 7 16 -8 24 -15 8 -23 7 -32 -4z"/>
 <path d="M2081 3046 c-7 -8 -8 -17 -3 -20 6 -3 15 1 21 8 7 8 8 17 3 20 -6 3 -15 -1 -21 -8z"/>
 <path d="M3189 3056 c-1 -3 -2 -9 -3 -13 -1 -5 -5 -13 -9 -20 -4 -6 -3 -14 3 -18 5 -3 11 -4 11 -1 1 3 2 9 3 14 1 4 5 12 9 19 4 6 3 14 -3 18 -5 3 -11 4 -11 1z"/>
 <path d="M2051 3006 c-7 -8 -8 -17 -3 -20 6 -3 15 1 21 8 7 8 8 17 3 20 -6 3 -15 -1 -21 -8z"/>
 <path d="M2535 2960 c-4 -6 -3 -16 3 -22 6 -6 12 -6 17 2 4 6 3 16 -3 22 -6 6 -12 6 -17 -2z"/>
 <path d="M2047 2953 c-4 -6 0 -18 7 -28 8 -11 16 -14 19 -8 4 6 0 18 -7 28 -8 11 -16 14 -19 8z"/>
 <path d="M2076 2871 c-4 -5 -2 -12 4 -16 6 -4 8 -10 5 -15 -3 -5 -1 -11 4 -14 5 -4 12 -2 15 3 4 5 2 12 -4 16 -6 4 -8 10 -5 15 3 5 1 11 -4 14 -5 4 -12 2 -15 -3z"/>
 <path d="M2290 2735 c-7 -8 -4 -17 9 -29 12 -11 21 -14 26 -7 6 11 -1 15 -18 12 -5 -1 -6 3 -2 9 4 6 13 9 20 8 8 -2 13 1 12 7 -3 13 -36 14 -47 0z"/>
 <path d="M2255 2691 c-6 -11 1 -15 18 -12 5 1 6 -3 3 -8 -4 -5 -2 -12 3 -15 19 -12 20 12 2 28 -13 11 -21 14 -26 7z"/>
 <path d="M2115 2660 c-9 -10 -14 -24 -10 -30 9 -15 27 -1 21 17 -3 8 -2 11 3 8 5 -3 12 -1 15 4 12 19 -12 20 -29 1z"/>
 <path d="M2235 2661 c-6 -11 1 -15 18 -12 5 1 6 -3 3 -8 -4 -5 -2 -12 3 -15 19 -12 20 12 2 28 -13 11 -21 14 -26 7z"/>
 <path d="M2135 2620 c-4 -6 -3 -16 3 -22 6 -6 12 -6 17 2 4 6 3 16 -3 22 -6 6 -12 6 -17 -2z"/>
 <path d="M3437 2624 c-9 -10 32 -86 43 -79 6 4 1 23 -10 46 -22 41 -23 43 -33 33z"/>
 <path d="M2219 2578 c-16 -32 -15 -31 -39 -18 -15 8 -26 8 -32 2 -13 -13 1 -21 42 -26 25 -3 33 1 45 25 9 16 11 30 5 34 -5 3 -14 -5 -21 -17z"/>
 <path d="M3196 2582 c-3 -5 1 -17 8 -28 12 -16 16 -16 30 -5 15 13 14 26 -2 26 -4 0 -12 4 -19 8 -6 4 -14 3 -17 -1z"/>
 <path d="M2742 2558 c-7 -7 -12 -9 -12 -5 0 4 -9 3 -20 -3 -11 -6 -18 -15 -15 -21 4 -5 15 -4 28 3 12 7 25 12 29 13 12 0 19 13 10 19 -5 3 -14 0 -20 -6z"/>
 <path d="M2835 2530 c-8 -13 20 -24 41 -16 20 8 9 26 -16 26 -10 0 -22 -5 -25 -10z"/>
 <path d="M2164 2518 c-6 -9 -4 -10 26 -11 11 -1 19 3 18 8 -4 12 -37 14 -44 3z"/>
 <path d="M3487 2514 c-4 -4 -3 -12 1 -18 4 -6 7 -14 8 -18 1 -5 3 -10 4 -13 1 -3 4 -9 5 -15 1 -5 4 -12 5 -15 1 -3 3 -9 4 -15 0 -5 4 -10 9 -10 7 0 8 4 6 15 -1 3 -3 10 -4 15 -1 6 -4 12 -5 15 -1 3 -4 10 -5 15 -1 6 -4 12 -5 15 -1 3 -3 9 -4 14 -2 14 -12 22 -19 15z"/>
 <path d="M2165 2420 c-4 -6 -3 -16 3 -22 6 -6 12 -6 17 2 4 6 3 16 -3 22 -6 6 -12 6 -17 -2z"/>
 <path d="M2155 2370 c-4 -6 -3 -16 3 -22 6 -6 12 -6 17 2 4 6 3 16 -3 22 -6 6 -12 6 -17 -2z"/>
 <path d="M2145 2300 c-4 -6 -3 -16 3 -22 6 -6 12 -6 17 2 4 6 3 16 -3 22 -6 6 -12 6 -17 -2z"/>
 <path d="M3019 2303 c-1 -4 -1 -12 0 -17 1 -5 -4 -4 -13 3 -18 15 -34 -5 -17 -22 8 -8 17 -6 32 10 14 13 17 23 10 27 -6 4 -12 4 -12 -1z"/>
 <path d="M3086 2288 c-19 -10 -19 -11 -1 -24 12 -9 23 -10 36 -3 14 7 21 5 29 -12 9 -16 14 -18 26 -8 8 6 14 8 14 3 0 -4 5 -3 12 4 19 19 29 14 22 -12 -4 -18 -1 -27 15 -35 22 -12 32 -4 26 25 -2 10 -4 22 -4 26 -2 20 -48 36 -81 29 -23 -5 -42 -3 -55 5 -15 9 -25 10 -39 2z"/>
 <path d="M2828 2275 c-4 -4 -4 -14 -1 -23 5 -11 2 -14 -10 -9 -24 9 -31 -10 -8 -22 14 -8 22 -7 31 4 7 9 20 14 29 13 9 -2 16 4 16 15 0 9 -4 17 -10 16 -5 -1 -9 -5 -7 -10 4 -14 -10 -10 -22 7 -6 8 -14 12 -18 9z"/>
 <path d="M2135 2210 c-4 -6 -3 -16 3 -22 6 -6 12 -6 17 2 4 6 3 16 -3 22 -6 6 -12 6 -17 -2z"/>
 <path d="M2785 2210 c-4 -6 -3 -16 3 -22 6 -6 12 -6 17 2 4 6 3 16 -3 22 -6 6 -12 6 -17 -2z"/>
 <path d="M2795 2160 c-3 -5 -2 -10 2 -12 13 -7 33 -3 36 6 3 12 -31 17 -38 6z"/>
 <path d="M3190 2120 c-10 -20 -16 -40 -13 -43 9 -9 44 13 38 23 -7 11 8 42 18 41 4 -1 8 2 10 6 1 3 -6 7 -16 9 -12 1 -24 -10 -37 -36z"/>
 <path d="M2129 2143 c-1 -4 -1 -12 0 -16 1 -5 -3 -6 -9 -2 -6 4 -24 -7 -41 -23 -46 -45 -18 -48 32 -4 28 26 39 41 31 46 -7 4 -13 4 -13 -1z"/>
 <path d="M3605 2121 c-7 -12 12 -24 25 -16 11 7 4 25 -10 25 -5 0 -11 -4 -15 -9z"/>
 <path d="M3595 2091 c-3 -6 3 -15 14 -21 12 -6 22 -6 26 -1 3 6 -3 15 -14 21 -12 6 -22 6 -26 1z"/>
 <path d="M3665 1948 c-9 -22 -2 -68 10 -71 14 -3 19 63 6 76 -7 7 -12 5 -16 -5z"/>
 <path d="M2037 1919 c-25 -14 -11 -32 14 -18 19 9 19 9 10 -10 -7 -12 -7 -22 -2 -26 6 -3 15 3 20 13 14 27 -16 55 -42 41z"/>
 <path d="M1984 1866 c-8 -22 3 -49 19 -43 6 2 12 14 12 27 0 27 -22 39 -31 16z"/>
 <path d="M2065 1836 c-11 -8 -14 -16 -8 -19 6 -4 18 0 28 7 11 8 14 16 8 19 -6 4 -18 0 -28 -7z"/>
 <path d="M2136 1799 c-8 -13 -19 -20 -22 -16 -9 9 -44 -22 -44 -38 0 -16 47 -47 54 -36 3 5 -1 14 -9 21 -8 7 -12 16 -9 22 3 5 11 4 19 -2 11 -9 17 -5 30 20 21 40 5 63 -19 29z"/>
 <path d="M3675 1810 c-4 -6 -3 -16 3 -22 6 -6 12 -6 17 2 4 6 3 16 -3 22 -6 6 -12 6 -17 -2z"/>
 <path d="M3635 1790 c-4 -6 -3 -16 3 -22 6 -6 12 -6 17 2 4 6 3 16 -3 22 -6 6 -12 6 -17 -2z"/>
 <path d="M3165 1780 c-3 -5 -1 -11 5 -15 6 -4 8 -10 5 -15 -3 -5 -1 -11 4 -14 11 -7 27 14 27 33 -1 16 -33 24 -41 11z"/>
 <path d="M2037 1769 c-14 -8 -15 -14 -6 -30 9 -18 24 -19 24 -1 0 4 4 12 8 19 10 16 -5 23 -26 12z"/>
 <path d="M3296 1772 c-9 -15 21 -49 34 -36 7 7 5 15 -9 28 -10 9 -22 13 -25 8z"/>
 <path d="M3395 1771 c-7 -12 12 -24 25 -16 11 7 4 25 -10 25 -5 0 -11 -4 -15 -9z"/>
 <path d="M3687 1764 c-4 -4 -3 -12 1 -18 4 -6 7 -14 8 -18 1 -5 3 -10 4 -13 1 -3 4 -9 5 -15 1 -5 4 -12 5 -15 1 -3 3 -9 4 -15 0 -5 4 -10 9 -10 7 0 8 4 6 15 -1 3 -3 10 -4 15 -1 6 -4 12 -5 15 -1 3 -4 10 -5 15 -1 6 -4 12 -5 15 -1 3 -3 9 -4 14 -2 14 -12 22 -19 15z"/>
 <path d="M1975 1750 c-4 -6 -3 -16 3 -22 6 -6 12 -6 17 2 4 6 3 16 -3 22 -6 6 -12 6 -17 -2z"/>
 <path d="M2827 1753 c-2 -5 -3 -15 -2 -25 2 -9 -10 -29 -26 -44 -22 -21 -26 -31 -18 -46 8 -15 14 -16 30 -8 11 6 17 15 14 19 -3 5 2 12 11 15 8 3 12 11 9 17 -4 6 3 21 16 35 12 13 19 25 16 25 -4 1 -10 2 -14 3 -5 1 -13 5 -20 9 -6 4 -14 4 -16 0z"/>
 <path d="M2646 1741 c-3 -4 3 -16 14 -26 19 -17 21 -17 39 -1 13 12 21 14 26 6 5 -8 11 -8 21 1 7 6 12 14 10 18 -7 10 -104 12 -110 2z"/>
 <path d="M2775 1741 c-7 -12 12 -24 25 -16 11 7 4 25 -10 25 -5 0 -11 -4 -15 -9z"/>
 <path d="M3646 1742 c-9 -15 12 -54 25 -47 12 8 11 18 -4 40 -10 12 -16 14 -21 7z"/>
 <path d="M2596 1732 c-3 -5 3 -17 13 -26 11 -10 22 -13 25 -8 3 5 -3 17 -13 26 -11 10 -22 13 -25 8z"/>
 <path d="M3511 1716 c-7 -8 -8 -17 -3 -20 6 -3 15 1 21 8 7 8 8 17 3 20 -6 3 -15 -1 -21 -8z"/>
 <path d="M3185 1711 c-4 -8 -1 -19 8 -28 19 -20 30 -1 13 22 -10 14 -15 15 -21 6z"/>
 <path d="M1965 1690 c-4 -6 -3 -16 3 -22 6 -6 12 -6 17 2 4 6 3 16 -3 22 -6 6 -12 6 -17 -2z"/>
 <path d="M2475 1691 c-3 -6 3 -15 14 -21 12 -6 22 -6 26 -1 3 6 -3 15 -14 21 -12 6 -22 6 -26 1z"/>
 <path d="M3462 1688 c-7 -7 -12 -9 -12 -5 0 4 -9 3 -20 -3 -11 -6 -18 -15 -15 -21 4 -5 15 -4 28 3 12 7 25 12 29 13 12 0 19 13 10 19 -5 3 -14 0 -20 -6z"/>
 <path d="M2050 1669 c-12 -21 -1 -32 17 -18 7 6 13 8 13 5 0 -4 9 -2 21 4 25 14 18 23 -17 25 -14 0 -29 -6 -34 -16z"/>
 <path d="M1967 1642 c-16 -17 -16 -21 -1 -51 19 -39 31 -31 36 23 3 44 -10 55 -35 28z"/>
 <path d="M2165 1650 c-4 -6 -3 -16 3 -22 6 -6 12 -6 17 2 4 6 3 16 -3 22 -6 6 -12 6 -17 -2z"/>
 <path d="M2526 1651 c-4 -5 -2 -12 4 -16 5 -3 10 -3 10 1 0 3 6 1 14 -5 10 -8 16 -9 21 -1 3 5 4 11 1 11 -3 1 -9 2 -13 3 -5 1 -13 5 -20 9 -6 4 -14 3 -17 -2z"/>
 <path d="M2089 1646 c-9 -38 -22 -57 -35 -52 -9 3 -21 -8 -32 -30 -10 -20 -21 -35 -25 -35 -4 1 -7 -2 -6 -6 1 -5 5 -7 10 -5 6 1 9 -4 7 -12 -2 -8 2 -15 7 -15 6 0 9 7 7 15 -2 8 3 13 10 12 8 -2 12 5 10 21 -3 18 0 22 12 18 11 -4 21 3 31 23 9 17 13 30 9 30 -4 0 -1 6 5 14 8 10 9 16 1 21 -5 3 -11 4 -11 1z"/>
 <path d="M2615 1631 c-7 -12 12 -24 25 -16 11 7 4 25 -10 25 -5 0 -11 -4 -15 -9z"/>
 <path d="M2735 1630 c-8 -12 20 -24 35 -15 6 3 8 11 5 16 -8 12 -32 12 -40 -1z"/>
 <path d="M3724 1626 c-4 -10 -2 -22 4 -28 8 -8 13 -7 18 6 4 10 2 22 -4 28 -8 8 -13 7 -18 -6z"/>
 <path d="M3230 1601 c-5 -11 -6 -22 -1 -25 11 -7 43 28 34 37 -11 12 -22 8 -33 -12z"/>
 <path d="M3295 1610 c-7 -11 22 -26 32 -16 3 3 12 1 20 -5 7 -6 13 -8 13 -4 0 4 7 2 15 -5 8 -7 22 -9 32 -5 10 4 60 8 110 9 55 1 93 5 93 11 0 13 -178 16 -186 3 -3 -5 -15 -2 -26 8 -15 15 -23 16 -38 6 -12 -7 -21 -8 -25 -2 -8 13 -32 13 -40 0z"/>
 <path d="M2175 1600 c-4 -6 -3 -16 3 -22 6 -6 12 -6 17 2 4 6 3 16 -3 22 -6 6 -12 6 -17 -2z"/>
 <path d="M2795 1590 c-3 -6 -10 -8 -15 -5 -5 3 -11 1 -14 -4 -3 -5 -22 -8 -41 -6 -20 1 -38 -2 -41 -7 -3 -4 -9 -6 -14 -3 -5 3 -11 1 -15 -4 -11 -18 33 -33 58 -19 12 7 25 13 30 14 4 1 9 3 12 4 3 1 10 4 15 5 6 1 11 3 13 4 1 2 19 3 40 4 43 2 49 -14 16 -49 -12 -13 -16 -24 -11 -28 15 -9 64 54 60 77 -2 16 -12 21 -45 24 -23 2 -44 -1 -48 -7z"/>
 <path d="M3696 1582 c-3 -6 1 -15 8 -21 8 -7 17 -8 20 -3 3 6 -1 15 -8 21 -8 7 -17 8 -20 3z"/>
 <path d="M2355 1560 c-7 -11 3 -16 57 -25 41 -6 59 8 29 24 -25 14 -78 14 -86 1z"/>
 <path d="M3236 1561 c-3 -5 1 -14 8 -20 16 -13 32 2 21 19 -8 12 -22 13 -29 1z"/>
 <path d="M2475 1550 c-3 -6 0 -12 7 -15 21 -8 148 1 148 10 0 13 -147 18 -155 5z"/>
 <path d="M2347 1533 c-4 -6 1 -21 11 -34 12 -13 21 -18 25 -12 4 6 -1 21 -11 34 -12 13 -21 18 -25 12z"/>
 <path d="M3275 1530 c-9 -14 45 -34 58 -21 7 7 1 14 -17 21 -33 12 -33 12 -41 0z"/>
 <path d="M3596 1521 c-4 -6 -13 -8 -20 -5 -17 7 -30 -12 -16 -21 6 -4 16 -2 23 3 7 6 15 11 20 11 8 1 11 11 4 17 -3 3 -8 1 -11 -5z"/>
 <path d="M3385 1510 c-3 -5 -4 -11 -1 -11 13 -3 22 -6 37 -13 24 -10 115 -3 109 9 -3 6 -30 11 -61 11 -31 1 -61 4 -67 8 -6 3 -13 2 -17 -4z"/>
 <path d="M3645 1510 c-4 -6 -3 -16 3 -22 6 -6 12 -6 17 2 4 6 3 16 -3 22 -6 6 -12 6 -17 -2z"/>
 <path d="M2655 1501 c-7 -12 12 -24 25 -16 11 7 4 25 -10 25 -5 0 -11 -4 -15 -9z"/>
 <path d="M2756 1491 c-4 -6 -13 -8 -20 -5 -8 3 -17 0 -21 -5 -3 -6 -10 -9 -15 -6 -5 3 -20 0 -32 -7 -13 -6 -33 -11 -45 -9 -11 1 -24 -3 -28 -8 -8 -15 21 -25 43 -16 9 5 26 10 36 12 11 2 25 8 31 13 7 5 15 7 18 4 3 -3 12 -2 19 2 7 5 18 9 23 9 14 0 19 19 7 23 -6 2 -13 -1 -16 -7z"/>
 <path d="M2405 1470 c-3 -5 8 -16 25 -25 16 -8 30 -13 30 -9 0 4 6 2 13 -3 16 -13 88 -11 84 2 -1 6 -20 10 -42 10 -22 1 -54 9 -72 18 -19 10 -34 13 -38 7z"/>
 <path d="M3655 1420 c-4 -6 -3 -16 3 -22 6 -6 12 -6 17 2 4 6 3 16 -3 22 -6 6 -12 6 -17 -2z"/>
 <path d="M2236 1371 c-4 -5 -2 -12 3 -16 6 -3 8 -12 5 -19 -7 -17 12 -30 21 -16 4 6 2 17 -4 24 -6 7 -8 15 -5 18 3 3 1 9 -5 12 -5 4 -12 2 -15 -3z"/>
 <path d="M2265 1220 c-4 -6 -3 -16 3 -22 6 -6 12 -6 17 2 4 6 3 16 -3 22 -6 6 -12 6 -17 -2z"/>
 <path d="M3655 1220 c-4 -6 -3 -16 3 -22 6 -6 12 -6 17 2 4 6 3 16 -3 22 -6 6 -12 6 -17 -2z"/>
 <path d="M3605 1010 c-4 -6 -3 -16 3 -22 6 -6 12 -6 17 2 4 6 3 16 -3 22 -6 6 -12 6 -17 -2z"/>
 <path d="M2296 891 c-4 -5 -2 -12 4 -16 6 -4 8 -10 5 -15 -3 -5 -1 -11 4 -14 5 -4 12 -2 15 3 4 5 2 12 -4 16 -6 4 -8 10 -5 15 3 5 1 11 -4 14 -5 4 -12 2 -15 -3z"/>
 <path d="M3215 840 c-8 -12 20 -24 35 -15 6 3 8 11 5 16 -8 12 -32 12 -40 -1z"/>
 <path d="M2945 830 c-8 -12 20 -24 35 -15 6 3 8 11 5 16 -8 12 -32 12 -40 -1z"/>
 <path d="M3365 830 c-8 -12 20 -24 35 -15 6 3 8 11 5 16 -8 12 -32 12 -40 -1z"/>
 <path d="M2835 820 c-8 -12 20 -24 35 -15 6 3 8 11 5 16 -8 12 -32 12 -40 -1z"/>
 <path d="M2365 811 c-7 -12 12 -24 25 -16 11 7 4 25 -10 25 -5 0 -11 -4 -15 -9z"/>
 <path d="M2415 811 c-7 -12 12 -24 25 -16 11 7 4 25 -10 25 -5 0 -11 -4 -15 -9z"/>
 <path d="M2535 811 c-7 -12 12 -24 25 -16 11 7 4 25 -10 25 -5 0 -11 -4 -15 -9z"/>
 <path d="M2745 810 c-8 -12 20 -24 35 -15 6 3 8 11 5 16 -8 12 -32 12 -40 -1z"/>
 </g>
<g id="layer3" fill="#6f4a32" stroke="none">
 <path d="M3005 3440 c-3 -5 0 -13 8 -16 23 -8 82 0 82 11 0 14 -82 19 -90 5z"/>
 <path d="M2875 3431 c-7 -12 12 -24 25 -16 11 7 4 25 -10 25 -5 0 -11 -4 -15 -9z"/>
 <path d="M2576 3373 c-4 -5 -12 -9 -17 -9 -5 -1 -11 -3 -14 -4 -3 -1 -9 -4 -15 -5 -5 -1 -12 -4 -15 -5 -3 -1 -9 -3 -15 -4 -5 0 -10 -4 -10 -8 0 -8 4 -9 15 -7 3 1 10 3 15 4 6 1 12 4 15 5 3 1 10 4 15 5 6 1 12 4 15 5 3 1 10 3 15 4 10 1 15 14 8 22 -3 2 -8 1 -12 -3z"/>
 <path d="M2407 3309 c-21 -11 -35 -24 -32 -29 4 -6 23 -1 46 10 22 12 37 25 34 30 -7 12 -2 13 -48 -11z"/>
 <path d="M2221 3186 c-7 -8 -8 -17 -3 -20 6 -3 15 1 21 8 7 8 8 17 3 20 -6 3 -15 -1 -21 -8z"/>
 <path d="M2798 3153 c-7 -14 -3 -33 6 -33 12 -1 17 28 6 35 -5 3 -10 2 -12 -2z"/>
 <path d="M2987 3154 c-9 -9 12 -46 23 -39 4 3 7 13 6 22 -3 18 -18 27 -29 17z"/>
 <path d="M3038 3143 c-7 -14 -3 -33 6 -33 12 -1 17 28 6 35 -5 3 -10 2 -12 -2z"/>
 <path d="M3095 3121 c-3 -6 4 -15 15 -21 11 -6 18 -15 16 -19 -7 -11 25 -36 44 -36 22 1 41 15 34 26 -3 5 -9 7 -14 4 -5 -3 -12 -1 -15 5 -4 6 -3 9 2 8 4 -2 9 0 11 5 6 18 1 19 -17 3 -19 -17 -47 -14 -36 4 3 5 -3 14 -14 20 -12 6 -22 6 -26 1z"/>
 <path d="M2679 3093 c-1 -2 -2 -6 -3 -10 -1 -5 -5 -13 -9 -20 -4 -6 -3 -14 3 -18 10 -6 12 -5 14 18 0 6 9 12 18 12 23 0 18 19 -4 20 -10 1 -19 0 -19 -2z"/>
 <path d="M2613 3038 c-8 -11 -9 -20 -4 -44 2 -13 29 18 27 31 -3 22 -12 27 -23 13z"/>
 <path d="M2421 2866 c-7 -8 -8 -17 -3 -20 6 -3 15 1 21 8 7 8 8 17 3 20 -6 3 -15 -1 -21 -8z"/>
 <path d="M2381 2816 c-7 -8 -8 -17 -3 -20 6 -3 15 1 21 8 7 8 8 17 3 20 -6 3 -15 -1 -21 -8z"/>
 <path d="M2345 2770 c-4 -6 -10 -8 -15 -5 -4 3 -13 -2 -19 -9 -7 -8 -8 -17 -3 -20 6 -3 15 1 22 9 7 8 16 13 20 10 5 -3 11 -1 14 4 4 5 2 12 -3 15 -5 4 -12 2 -16 -4z"/>
 <path d="M2264 2698 c-6 -9 -4 -10 26 -11 11 -1 19 3 18 8 -4 12 -37 14 -44 3z"/>
 <path d="M2105 2660 c-3 -5 3 -14 14 -20 20 -10 41 3 27 18 -10 10 -35 11 -41 2z"/>
 <path d="M2194 2589 c-9 -18 -10 -30 -4 -34 5 -3 15 5 22 19 6 15 17 25 24 24 7 -2 12 1 11 7 -4 21 -39 10 -53 -16z"/>
 <path d="M3125 2600 c-3 -5 -4 -11 -1 -11 12 -3 26 -7 34 -9 4 -1 10 -2 14 -1 4 0 12 -8 18 -19 6 -11 15 -18 21 -15 5 4 5 14 -2 26 -6 12 -13 18 -16 15 -4 -3 -12 -1 -20 5 -7 6 -13 8 -13 4 0 -4 -6 -2 -14 4 -10 8 -16 9 -21 1z"/>
 <path d="M2836 2593 c-4 -5 -12 -9 -17 -9 -5 -1 -11 -3 -14 -4 -3 -1 -9 -3 -15 -4 -5 0 -10 -4 -10 -8 0 -5 0 -11 0 -14 0 -4 7 -1 15 6 8 7 15 9 15 5 0 -4 6 -3 13 3 6 6 15 11 20 11 8 1 11 11 5 17 -3 2 -8 1 -12 -3z"/>
 <path d="M2146 2529 c-9 -17 -14 -35 -11 -38 6 -11 70 -6 70 5 0 5 4 14 8 21 4 6 3 14 -3 18 -10 6 -11 5 -14 -14 -3 -23 -16 -22 -16 2 0 38 -16 41 -34 6z"/>
 <path d="M3135 2551 c-7 -12 12 -24 25 -16 11 7 4 25 -10 25 -5 0 -11 -4 -15 -9z"/>
 <path d="M3496 2491 c-4 -5 -2 -12 4 -16 6 -4 8 -10 5 -15 -3 -5 -1 -11 4 -14 5 -4 12 -2 15 3 4 5 2 12 -4 16 -6 4 -8 10 -5 15 3 5 1 11 -4 14 -5 4 -12 2 -15 -3z"/>
 <path d="M3535 2350 c-4 -6 -3 -16 3 -22 6 -6 12 -6 17 2 4 6 3 16 -3 22 -6 6 -12 6 -17 -2z"/>
 <path d="M2145 2320 c-4 -6 -3 -16 3 -22 6 -6 12 -6 17 2 4 6 3 16 -3 22 -6 6 -12 6 -17 -2z"/>
 <path d="M3024 2298 c-3 -5 -9 -6 -14 -3 -5 3 -11 1 -14 -4 -4 -5 -2 -12 3 -15 5 -4 13 -2 16 4 5 8 11 8 20 0 10 -8 19 -8 35 0 12 6 19 14 16 18 -9 9 -57 9 -62 0z"/>
 <path d="M2853 2274 c-3 -8 -11 -13 -19 -10 -14 5 -37 -17 -27 -27 3 -4 12 -2 20 5 10 8 17 7 27 -7 9 -13 15 -15 20 -7 4 7 5 16 2 21 -3 5 1 12 10 15 8 3 12 10 9 16 -9 15 -35 12 -42 -6z"/>
 <path d="M3131 2266 c-7 -8 -8 -17 -3 -20 6 -3 15 1 21 8 7 8 8 17 3 20 -6 3 -15 -1 -21 -8z"/>
 <path d="M3185 2270 c-3 -5 -1 -11 5 -15 5 -3 10 -3 10 1 0 3 6 1 14 -5 9 -8 16 -8 20 -2 7 10 -10 24 -31 27 -7 1 -15 -2 -18 -6z"/>
 <path d="M2955 2261 c-7 -12 12 -24 25 -16 11 7 4 25 -10 25 -5 0 -11 -4 -15 -9z"/>
 <path d="M2926 2252 c-3 -6 1 -15 8 -21 8 -7 17 -8 20 -3 3 6 -1 15 -8 21 -8 7 -17 8 -20 3z"/>
 <path d="M2135 2230 c-4 -6 -3 -16 3 -22 6 -6 12 -6 17 2 4 6 3 16 -3 22 -6 6 -12 6 -17 -2z"/>
 <path d="M3235 2220 c-9 -10 -14 -23 -11 -29 4 -5 2 -12 -4 -16 -19 -12 0 -26 20 -15 16 9 18 15 10 36 -6 15 -6 23 -1 19 5 -3 12 -1 15 4 12 19 -12 20 -29 1z"/>
 <path d="M2805 2140 c-3 -5 4 -19 15 -30 24 -24 45 -18 30 9 -11 22 -37 34 -45 21z"/>
 <path d="M3597 2139 c-10 -6 -15 -15 -12 -20 4 -5 12 -6 18 -2 8 4 7 1 -1 -9 -8 -10 -9 -19 -3 -22 11 -7 24 11 26 37 2 23 -6 28 -28 16z"/>
 <path d="M2111 2106 c-7 -8 -8 -17 -3 -20 6 -3 15 1 21 8 7 8 8 17 3 20 -6 3 -15 -1 -21 -8z"/>
 <path d="M3639 2095 c-1 -6 -1 -14 0 -18 1 -5 -3 -6 -9 -2 -18 11 -31 -5 -20 -26 6 -11 15 -17 21 -14 5 4 6 11 3 17 -4 6 -1 9 7 6 8 -3 14 -10 14 -16 0 -7 3 -12 8 -12 6 0 9 5 6 13 0 1 -2 10 -4 21 -4 21 -24 45 -26 31z"/>
 <path d="M3664 1976 c-4 -10 -2 -22 4 -28 8 -8 13 -7 18 6 4 10 2 22 -4 28 -8 8 -13 7 -18 -6z"/>
 <path d="M2059 1924 c-1 -5 -1 -12 0 -16 0 -4 -16 -7 -37 -5 -31 2 -37 -1 -37 -17 0 -15 7 -20 25 -20 14 0 31 3 37 7 8 5 10 0 7 -17 -3 -18 2 -28 16 -36 11 -6 19 -14 17 -18 -1 -4 1 -8 6 -9 16 -6 19 -2 7 12 -7 8 -9 15 -5 15 5 0 0 8 -9 19 -16 17 -16 19 0 25 15 6 15 8 1 24 -9 9 -16 21 -15 25 0 12 -12 22 -13 11z"/>
 <path d="M2014 1789 c-5 -9 -3 -11 18 -13 8 0 13 -16 14 -37 1 -20 4 -41 7 -46 7 -11 48 -9 67 2 19 11 0 26 -20 15 -24 -13 -30 -13 -30 2 0 6 3 8 6 5 4 -3 16 -1 28 5 11 7 24 11 27 11 14 -4 41 37 35 53 -6 15 -9 15 -27 -5 -15 -16 -24 -19 -38 -11 -23 12 -35 2 -20 -17 7 -8 8 -13 1 -13 -9 0 -24 25 -26 44 -1 12 -35 16 -42 5z"/>
 <path d="M3171 1776 c-7 -8 -8 -17 -3 -20 6 -3 15 1 21 8 7 8 8 17 3 20 -6 3 -15 -1 -21 -8z"/>
 <path d="M1975 1770 c-4 -6 -3 -16 3 -22 6 -6 12 -6 17 2 4 6 3 16 -3 22 -6 6 -12 6 -17 -2z"/>
 <path d="M3203 1767 c-19 -24 -23 -36 -14 -41 5 -3 16 5 25 19 16 24 6 45 -11 22z"/>
 <path d="M3297 1756 c-20 -30 -13 -37 33 -30 36 6 37 5 36 -22 -1 -16 -5 -34 -9 -41 -4 -6 -3 -14 3 -18 13 -8 32 4 25 15 -3 5 4 14 16 20 15 9 19 17 14 33 -4 12 -8 31 -10 42 -2 11 -4 22 -4 24 -1 2 -9 -3 -19 -12 -16 -15 -21 -15 -38 -2 -26 19 -29 19 -47 -9z"/>
 <path d="M3634 1765 c-8 -21 23 -88 36 -80 7 4 7 13 0 25 -5 10 -10 28 -10 39 0 26 -18 37 -26 16z"/>
 <path d="M3441 1756 c-9 -10 -9 -16 -1 -21 17 -10 37 12 24 25 -8 8 -15 6 -23 -4z"/>
 <path d="M2795 1740 c-10 -17 12 -37 25 -24 8 8 6 15 -4 23 -10 9 -16 9 -21 1z"/>
 <path d="M2609 1736 c-16 -31 3 -68 24 -47 15 15 48 14 45 -1 -2 -7 3 -12 11 -10 12 3 12 0 2 -12 -17 -20 2 -29 25 -11 18 13 18 16 3 42 -9 15 -20 27 -26 26 -5 -1 -26 2 -46 7 -20 4 -37 7 -38 6z"/>
 <path d="M3505 1731 c-7 -12 12 -24 25 -16 11 7 4 25 -10 25 -5 0 -11 -4 -15 -9z"/>
 <path d="M3235 1710 c-4 -6 -13 -9 -21 -6 -22 8 -25 -10 -5 -28 17 -15 20 -15 41 2 19 16 20 19 7 30 -11 9 -17 10 -22 2z"/>
 <path d="M2489 1706 c-5 -23 -2 -46 5 -48 12 -4 15 41 4 48 -4 3 -8 3 -9 0z"/>
 <path d="M2826 1671 c-10 -11 -13 -22 -8 -25 5 -3 17 3 26 13 10 11 13 22 8 25 -5 3 -17 -3 -26 -13z"/>
 <path d="M2061 1643 c-5 -10 -12 -17 -15 -15 -15 6 -16 0 -5 -20 11 -20 13 -20 24 -4 7 9 17 15 23 14 5 -2 10 2 10 7 0 6 -4 9 -10 7 -5 -1 -7 2 -4 7 4 5 2 12 -3 16 -5 3 -14 -3 -20 -12z"/>
 <path d="M2536 1651 c-4 -5 -2 -12 4 -16 5 -3 10 -3 10 1 0 3 6 1 14 -5 10 -8 16 -9 21 -1 3 5 4 11 1 11 -3 1 -9 2 -13 3 -5 1 -13 5 -20 9 -6 4 -14 3 -17 -2z"/>
 <path d="M3665 1650 c-4 -6 -1 -17 5 -25 7 -8 9 -15 6 -15 -4 0 -2 -9 4 -20 6 -11 15 -18 21 -15 5 4 4 15 -3 28 -7 12 -11 27 -10 34 3 16 -15 26 -23 13z"/>
 <path d="M1985 1630 c-4 -6 -3 -16 3 -22 6 -6 12 -6 17 2 4 6 3 16 -3 22 -6 6 -12 6 -17 -2z"/>
 <path d="M2635 1630 c-8 -12 20 -24 35 -15 6 3 8 11 5 16 -8 12 -32 12 -40 -1z"/>
 <path d="M2715 1631 c-7 -12 12 -24 25 -16 11 7 4 25 -10 25 -5 0 -11 -4 -15 -9z"/>
 <path d="M3242 1610 l-24 -10 20 -33 c11 -17 32 -38 46 -45 57 -29 227 -41 297 -22 50 14 82 50 71 80 -8 22 -12 22 -163 25 -85 1 -170 5 -189 8 -19 4 -46 2 -58 -3z"/>
 <path d="M2777 1584 c-3 -4 -24 -8 -45 -10 -22 -1 -55 -6 -73 -11 -48 -13 -205 -16 -264 -4 -27 5 -53 7 -57 3 -3 -4 5 -26 19 -50 24 -41 54 -61 124 -82 56 -17 332 47 376 87 15 15 23 32 21 46 -3 18 -10 22 -48 25 -25 2 -49 0 -53 -4z"/>
 <path d="M2206 1471 c-4 -5 -2 -12 4 -16 6 -4 8 -10 5 -15 -3 -5 -1 -11 4 -14 5 -4 12 -2 15 3 4 5 2 12 -4 16 -6 4 -8 10 -5 15 3 5 1 11 -4 14 -5 4 -12 2 -15 -3z"/>
 <path d="M3655 1440 c-4 -6 -3 -16 3 -22 6 -6 12 -6 17 2 4 6 3 16 -3 22 -6 6 -12 6 -17 -2z"/>
 <path d="M2264 1196 c-4 -10 -2 -22 4 -28 8 -8 13 -7 18 6 4 10 2 22 -4 28 -8 8 -13 7 -18 -6z"/>
 <path d="M3649 1156 c-1 -3 -2 -9 -3 -13 -1 -5 -5 -14 -9 -20 -5 -7 -5 -13 -1 -13 3 0 1 -6 -5 -14 -8 -10 -9 -16 -1 -21 5 -3 11 -4 11 -1 4 16 7 26 9 31 1 3 3 8 4 13 1 4 5 12 9 19 4 6 3 14 -3 18 -5 3 -11 4 -11 1z"/>
 <path d="M3599 946 c-1 -3 -2 -9 -3 -13 -1 -5 -5 -13 -9 -20 -4 -6 -3 -14 3 -18 5 -3 11 -4 11 -1 1 3 2 9 3 14 1 4 5 12 9 19 4 6 3 14 -3 18 -5 3 -11 4 -11 1z"/>
 <path d="M2277 934 c-4 -4 -3 -12 0 -18 4 -6 8 -17 9 -24 5 -32 15 -45 25 -35 8 8 7 18 -2 34 -7 13 -13 27 -14 31 0 11 -11 18 -18 12z"/>
 <path d="M2316 842 c-3 -6 1 -15 8 -21 8 -7 17 -8 20 -3 3 6 -1 15 -8 21 -8 7 -17 8 -20 3z"/>
 <path d="M3545 840 c-4 -6 -10 -8 -15 -5 -5 3 -11 1 -14 -4 -4 -5 -2 -12 3 -15 5 -4 12 -2 16 4 4 6 10 8 15 5 5 -3 11 -1 14 4 4 5 2 12 -3 15 -5 4 -12 2 -16 -4z"/>
 <path d="M2975 830 c-8 -12 20 -24 35 -15 6 3 8 11 5 16 -8 12 -32 12 -40 -1z"/>
 <path d="M3065 830 c-3 -5 0 -13 9 -16 21 -8 61 -1 61 11 0 14 -62 19 -70 5z"/>
 <path d="M3345 831 c-7 -12 12 -24 25 -16 11 7 4 25 -10 25 -5 0 -11 -4 -15 -9z"/>
 <path d="M2865 821 c-7 -12 12 -24 25 -16 11 7 4 25 -10 25 -5 0 -11 -4 -15 -9z"/>
 <path d="M2435 810 c-8 -12 20 -24 35 -15 6 3 8 11 5 16 -8 12 -32 12 -40 -1z"/>
 <path d="M2515 811 c-7 -12 12 -24 25 -16 11 7 4 25 -10 25 -5 0 -11 -4 -15 -9z"/>
 <path d="M2775 811 c-7 -12 12 -24 25 -16 11 7 4 25 -10 25 -5 0 -11 -4 -15 -9z"/>
 <path d="M2625 800 c-8 -12 20 -24 35 -15 6 3 8 11 5 16 -8 12 -32 12 -40 -1z"/>
 <path d="M2845 210 c-8 -13 20 -24 41 -16 20 8 9 26 -16 26 -10 0 -22 -5 -25 -10z"/>
 </g>
<g id="layer4" fill="#4e2912" stroke="none">
 <path d="M2965 3440 c-8 -13 20 -24 41 -16 20 8 9 26 -16 26 -10 0 -22 -5 -25 -10z"/>
 <path d="M3085 3440 c-8 -12 20 -24 35 -15 6 3 8 11 5 16 -8 12 -32 12 -40 -1z"/>
 <path d="M2855 3431 c-7 -12 12 -24 25 -16 11 7 4 25 -10 25 -5 0 -11 -4 -15 -9z"/>
 <path d="M2535 3360 c-4 -6 -10 -8 -15 -5 -5 3 -11 1 -14 -4 -4 -5 -2 -12 3 -15 5 -4 12 -2 16 4 4 6 10 8 15 5 5 -3 11 -1 14 4 4 5 2 12 -3 15 -5 4 -12 2 -16 -4z"/>
 <path d="M2141 3116 c-24 -24 -39 -46 -34 -49 6 -4 29 13 52 37 24 24 39 46 34 49 -6 4 -29 -13 -52 -37z"/>
 <path d="M2809 3153 c-1 -4 -1 -12 0 -16 1 -4 -8 -3 -18 3 -16 8 -22 7 -29 -7 -5 -9 -18 -17 -28 -18 -11 0 -20 -5 -21 -10 -4 -13 27 -13 52 -1 11 6 23 9 26 9 13 -4 40 35 30 42 -6 3 -12 3 -12 -2z"/>
 <path d="M2965 3151 c-7 -12 12 -24 25 -16 11 7 4 25 -10 25 -5 0 -11 -4 -15 -9z"/>
 <path d="M2865 3141 c-7 -13 17 -24 40 -19 9 1 16 8 16 13 0 14 -48 19 -56 6z"/>
 <path d="M3166 3141 c-4 -5 -2 -12 4 -16 6 -4 8 -10 5 -15 -3 -5 -1 -11 4 -14 5 -4 12 -2 15 3 4 5 2 12 -4 16 -6 4 -8 10 -5 15 3 5 1 11 -4 14 -5 4 -12 2 -15 -3z"/>
 <path d="M3054 3125 c-10 -8 -16 -15 -11 -16 4 -1 10 -2 15 -3 4 -1 17 -7 29 -14 30 -17 36 -1 9 25 -21 20 -25 21 -42 8z"/>
 <path d="M2666 3082 c-3 -6 1 -15 8 -21 8 -7 17 -8 20 -3 3 6 -1 15 -8 21 -8 7 -17 8 -20 3z"/>
 <path d="M3201 3052 c-13 -25 2 -38 19 -16 9 10 10 18 3 25 -8 8 -14 5 -22 -9z"/>
 <path d="M2061 3026 c-7 -8 -8 -17 -3 -20 6 -3 15 1 21 8 7 8 8 17 3 20 -6 3 -15 -1 -21 -8z"/>
 <path d="M2625 3030 c-4 -6 -10 -8 -15 -5 -4 3 -13 -2 -19 -9 -7 -8 -8 -17 -3 -20 6 -3 15 1 22 9 7 8 16 13 20 10 5 -3 11 -1 14 4 4 5 2 12 -3 15 -5 4 -12 2 -16 -4z"/>
 <path d="M2551 2972 c-13 -25 2 -38 19 -16 9 10 10 18 3 25 -8 8 -14 5 -22 -9z"/>
 <path d="M2057 2924 c-4 -4 -3 -12 1 -18 4 -6 7 -14 8 -18 1 -5 3 -10 4 -13 1 -3 3 -9 4 -15 0 -5 4 -10 9 -10 4 0 10 0 13 0 4 0 1 7 -6 15 -7 8 -9 15 -5 15 4 0 1 7 -6 17 -8 9 -12 18 -11 20 6 8 -4 13 -11 7z"/>
 <path d="M2401 2846 c-7 -8 -8 -17 -3 -20 6 -3 15 1 21 8 7 8 8 17 3 20 -6 3 -15 -1 -21 -8z"/>
 <path d="M2336 2781 c-15 -16 -15 -19 -1 -31 8 -7 16 -10 16 -6 1 3 2 9 3 14 1 4 5 12 9 19 13 20 -9 24 -27 4z"/>
 <path d="M2277 2713 c-4 -6 0 -18 7 -28 8 -11 16 -14 19 -8 4 6 0 18 -7 28 -8 11 -16 14 -19 8z"/>
 <path d="M2245 2671 c-3 -6 3 -15 14 -21 12 -6 22 -6 26 -1 3 6 -3 15 -14 21 -12 6 -22 6 -26 1z"/>
 <path d="M2115 2620 c-4 -6 -3 -16 3 -22 6 -6 12 -6 17 2 4 6 3 16 -3 22 -6 6 -12 6 -17 -2z"/>
 <path d="M2935 2611 c-6 -11 29 -33 39 -24 7 7 -12 33 -25 33 -4 0 -10 -4 -14 -9z"/>
 <path d="M3447 2613 c-4 -6 0 -18 7 -28 8 -11 16 -14 19 -8 4 6 0 18 -7 28 -8 11 -16 14 -19 8z"/>
 <path d="M2886 2602 c-3 -6 1 -15 8 -21 8 -7 17 -8 20 -3 3 6 -1 15 -8 21 -8 7 -17 8 -20 3z"/>
 <path d="M3111 2596 c-8 -9 -8 -16 -2 -20 5 -4 13 -2 16 4 5 8 11 7 21 -1 8 -6 14 -8 14 -4 0 4 6 2 14 -4 10 -8 16 -9 21 -1 3 5 4 11 1 11 -16 4 -26 7 -31 9 -3 1 -8 3 -12 4 -5 1 -13 5 -19 9 -7 4 -17 0 -23 -7z"/>
 <path d="M2135 2590 c-4 -6 -1 -18 7 -27 7 -9 12 -18 11 -20 -2 -1 0 -3 5 -4 4 0 12 -5 19 -10 7 -7 14 -6 18 1 3 5 4 11 1 11 -3 1 -9 2 -13 3 -19 3 -32 18 -27 30 7 17 -12 30 -21 16z"/>
 <path d="M2846 2592 c-3 -6 1 -15 8 -21 8 -7 17 -8 20 -3 3 6 -1 15 -8 21 -8 7 -17 8 -20 3z"/>
 <path d="M2815 2580 c-3 -6 -10 -8 -15 -5 -5 3 -11 1 -14 -4 -4 -5 -2 -12 3 -15 5 -4 13 -2 16 4 5 8 11 8 20 0 8 -7 16 -7 19 -2 3 6 -1 15 -8 21 -10 8 -16 9 -21 1z"/>
 <path d="M2752 2558 c-7 -7 -12 -9 -12 -5 0 4 -9 3 -21 -3 -27 -15 -18 -23 30 -27 46 -4 58 7 33 31 -14 12 -21 13 -30 4z"/>
 <path d="M2974 2559 c-2 -4 3 -12 10 -18 17 -14 111 -11 111 4 0 11 -114 24 -121 14z"/>
 <path d="M2906 2552 c-3 -6 1 -15 8 -21 8 -7 17 -8 20 -3 3 6 -1 15 -8 21 -8 7 -17 8 -20 3z"/>
 <path d="M3115 2551 c-7 -12 12 -24 25 -16 11 7 4 25 -10 25 -5 0 -11 -4 -15 -9z"/>
 <path d="M2165 2510 c-3 -5 -2 -10 2 -12 13 -7 33 -3 36 6 3 12 -31 17 -38 6z"/>
 <path d="M3031 2297 c-15 -19 -6 -25 28 -21 17 2 34 -3 41 -11 7 -8 17 -12 22 -9 5 3 2 14 -8 25 -9 10 -20 16 -25 14 -4 -3 -10 -1 -14 5 -9 14 -30 12 -44 -3z"/>
 <path d="M2834 2269 c-5 -9 -3 -11 19 -13 6 0 12 -7 12 -13 0 -7 3 -13 8 -13 7 0 8 4 6 15 -1 3 -2 10 -3 17 -1 14 -34 20 -42 7z"/>
 <path d="M2135 2250 c-4 -6 -3 -16 3 -22 6 -6 12 -6 17 2 4 6 3 16 -3 22 -6 6 -12 6 -17 -2z"/>
 <path d="M2799 2238 c-5 -35 0 -80 10 -92 14 -16 36 -12 25 5 -3 5 -10 6 -16 3 -6 -4 -6 1 1 14 6 11 11 25 11 29 0 12 -29 50 -31 41z"/>
 <path d="M3581 2186 c-7 -8 -8 -17 -3 -20 6 -3 15 1 21 8 7 8 8 17 3 20 -6 3 -15 -1 -21 -8z"/>
 <path d="M2116 2172 c-3 -6 1 -15 8 -21 8 -7 17 -8 20 -3 3 6 -1 15 -8 21 -8 7 -17 8 -20 3z"/>
 <path d="M3218 2152 c-24 -27 -39 -60 -30 -66 8 -5 33 24 55 61 12 19 -9 24 -25 5z"/>
 <path d="M3596 2151 c-11 -12 -14 -21 -7 -26 11 -6 15 1 11 20 -1 6 2 6 7 2 4 -5 8 -13 8 -18 0 -15 19 -11 21 5 4 27 -21 38 -40 17z"/>
 <path d="M2836 2091 c-3 -5 1 -14 8 -20 16 -13 32 2 21 19 -8 12 -22 13 -29 1z"/>
 <path d="M2009 2006 c-1 -3 -2 -9 -3 -13 -1 -5 -5 -13 -9 -20 -4 -6 -3 -14 3 -18 5 -3 11 -4 11 -1 1 3 2 9 3 14 1 4 5 12 9 19 4 6 3 14 -3 18 -5 3 -11 4 -11 1z"/>
 <path d="M3665 2000 c-4 -6 -3 -16 3 -22 6 -6 12 -6 17 2 4 6 3 16 -3 22 -6 6 -12 6 -17 -2z"/>
 <path d="M2095 1920 c-4 -6 -3 -16 3 -22 6 -6 12 -6 17 2 4 6 3 16 -3 22 -6 6 -12 6 -17 -2z"/>
 <path d="M2015 1860 c-4 -6 -3 -16 3 -22 6 -6 12 -6 17 2 4 6 3 16 -3 22 -6 6 -12 6 -17 -2z"/>
 <path d="M3675 1840 c-4 -6 -3 -16 3 -22 6 -6 12 -6 17 2 4 6 3 16 -3 22 -6 6 -12 6 -17 -2z"/>
 <path d="M2066 1811 c-4 -5 -2 -12 4 -16 6 -4 8 -10 5 -15 -3 -5 -1 -11 4 -14 5 -4 12 -2 15 3 4 5 2 12 -4 16 -6 4 -8 10 -5 15 3 5 1 11 -4 14 -5 4 -12 2 -15 -3z"/>
 <path d="M3323 1761 c-3 -11 -15 -21 -27 -23 -18 -3 -21 -10 -21 -46 -1 -50 6 -58 34 -40 15 9 23 9 34 -1 11 -8 17 -9 22 -1 4 6 16 10 28 8 19 -3 22 2 20 26 -3 34 12 65 29 62 7 -1 23 -7 35 -14 13 -7 24 -8 28 -3 3 6 -4 15 -15 21 -11 6 -20 8 -20 4 0 -3 -6 -1 -13 5 -8 6 -17 8 -21 4 -12 -13 -35 -11 -40 3 -9 22 -67 18 -73 -5z m30 -46 c-5 -16 -33 -21 -33 -7 0 13 22 32 31 26 5 -2 6 -11 2 -19z"/>
 <path d="M2125 1756 c-15 -11 -17 -18 -9 -26 14 -14 57 5 51 23 -5 17 -21 18 -42 3z"/>
 <path d="M2835 1752 c-4 -4 -11 -7 -16 -7 -16 0 -10 -19 8 -21 20 -3 57 15 49 24 -9 9 -34 11 -41 4z"/>
 <path d="M3697 1744 c-4 -4 -3 -12 1 -18 4 -6 7 -14 8 -18 1 -5 3 -10 4 -13 1 -3 4 -9 5 -15 1 -5 4 -12 5 -15 1 -3 3 -9 4 -15 0 -5 4 -10 9 -10 7 0 8 4 6 15 -1 3 -3 10 -4 15 -1 6 -4 12 -5 15 -1 3 -4 10 -5 15 -1 6 -4 12 -5 15 -1 3 -3 9 -4 14 -2 14 -12 22 -19 15z"/>
 <path d="M2615 1729 c-4 -5 -13 -8 -20 -5 -18 6 -40 -20 -25 -29 6 -4 9 -20 6 -36 -4 -29 7 -48 19 -29 9 15 51 12 65 -6 18 -20 66 -15 62 7 -1 9 4 19 13 23 13 5 13 9 -3 37 -16 30 -37 41 -37 20 0 -5 -3 -12 -7 -16 -4 -4 -4 -14 0 -23 5 -14 3 -15 -10 -5 -8 7 -18 10 -22 6 -11 -11 -26 19 -20 39 6 19 -11 34 -21 17z"/>
 <path d="M3196 1731 c-4 -5 -1 -13 5 -16 5 -4 8 -13 5 -21 -8 -21 12 -27 23 -6 8 15 6 23 -8 36 -12 11 -21 13 -25 7z"/>
 <path d="M3637 1734 c-9 -10 22 -66 33 -59 6 4 4 18 -5 36 -17 31 -18 32 -28 23z"/>
 <path d="M2071 1716 c-7 -8 -8 -17 -3 -20 6 -3 15 1 21 8 7 8 8 17 3 20 -6 3 -15 -1 -21 -8z"/>
 <path d="M2105 1700 c-3 -5 -2 -10 2 -12 13 -7 33 -3 36 6 3 12 -31 17 -38 6z"/>
 <path d="M3446 1702 c-3 -6 1 -15 8 -21 8 -7 17 -8 20 -3 3 6 -1 15 -8 21 -8 7 -17 8 -20 3z"/>
 <path d="M2155 1690 c-4 -6 -3 -16 3 -22 6 -6 12 -6 17 2 4 6 3 16 -3 22 -6 6 -12 6 -17 -2z"/>
 <path d="M2466 1691 c-3 -5 4 -15 17 -23 26 -18 37 -21 38 -10 0 4 5 12 10 19 7 7 6 13 0 17 -5 4 -12 2 -16 -4 -4 -7 -12 -7 -25 0 -11 6 -21 6 -24 1z"/>
 <path d="M2067 1679 c-25 -14 -11 -32 15 -18 13 7 18 7 14 1 -3 -6 -2 -13 3 -16 18 -11 21 11 3 27 -12 11 -22 13 -35 6z"/>
 <path d="M3235 1680 c-4 -6 -3 -16 3 -22 6 -6 12 -6 17 2 4 6 3 16 -3 22 -6 6 -12 6 -17 -2z"/>
 <path d="M2805 1667 c-10 -8 -14 -16 -9 -19 14 -9 56 11 49 22 -8 13 -18 13 -40 -3z"/>
 <path d="M3635 1627 c-9 -22 -2 -62 10 -60 6 1 11 14 13 29 4 32 -14 56 -23 31z"/>
 <path d="M1944 1587 c-7 -20 -2 -47 11 -50 14 -3 19 43 6 56 -7 7 -12 6 -17 -6z"/>
 <path d="M2002 1568 c-22 -35 -18 -63 5 -32 14 19 19 20 40 3 7 -7 14 -6 18 1 6 10 5 12 -17 14 -7 0 -13 9 -13 18 0 30 -12 29 -33 -4z"/>
 <path d="M3711 1581 c-36 -27 -17 -46 19 -19 16 12 27 25 24 30 -8 12 -16 10 -43 -11z"/>
 <path d="M3645 1540 c-4 -6 -3 -16 3 -22 6 -6 12 -6 17 2 4 6 3 16 -3 22 -6 6 -12 6 -17 -2z"/>
 <path d="M1961 1486 c-10 -12 -9 -16 6 -23 40 -20 63 0 27 24 -18 12 -23 11 -33 -1z"/>
 <path d="M3655 1460 c-4 -6 -3 -16 3 -22 6 -6 12 -6 17 2 4 6 3 16 -3 22 -6 6 -12 6 -17 -2z"/>
 <path d="M2145 1400 c-8 -12 15 -139 26 -146 5 -3 9 -10 9 -17 0 -6 -6 -3 -13 8 -24 32 -37 9 -23 -40 12 -38 12 -45 -1 -49 -17 -7 -10 -52 13 -98 21 -40 10 -34 -15 8 -22 37 -46 38 -35 1 17 -57 102 -182 147 -219 27 -21 53 -36 57 -33 5 3 -2 26 -14 50 -13 24 -20 43 -16 42 4 -1 7 2 7 8 -1 5 -7 9 -13 7 -22 -5 -24 27 -3 39 19 9 20 19 17 110 -4 129 -22 135 -26 9 -2 -52 -5 -96 -7 -98 -2 -2 -16 20 -31 50 -23 46 -24 51 -6 35 34 -31 35 -2 2 70 -30 65 -30 66 -6 44 13 -12 27 -18 30 -13 8 13 -75 242 -88 242 -3 0 -7 -4 -11 -10z"/>
 <path d="M1984 1366 c-4 -10 -2 -22 4 -28 8 -8 13 -7 18 6 4 10 2 22 -4 28 -8 8 -13 7 -18 -6z"/>
 <path d="M3664 1327 c-7 -20 -2 -47 11 -50 14 -3 19 43 6 56 -7 7 -12 6 -17 -6z"/>
 <path d="M3707 1313 c-2 -4 -8 -34 -12 -66 -4 -41 -10 -57 -20 -55 -8 2 -13 -1 -12 -7 1 -5 5 -9 10 -7 4 1 7 -7 7 -18 0 -12 -6 -20 -13 -18 -7 2 -13 -1 -14 -7 0 -5 4 -8 10 -7 7 2 8 0 4 -5 -5 -4 -13 -8 -18 -8 -5 0 -8 -4 -6 -10 1 -5 5 -9 10 -8 4 2 7 -2 7 -7 0 -6 -6 -10 -12 -8 -7 2 -13 -2 -13 -7 0 -6 3 -9 7 -8 4 2 5 -4 2 -12 -3 -8 -9 -14 -12 -13 -19 2 -21 -4 -6 -27 9 -13 13 -33 9 -44 -17 -55 46 -10 79 56 20 41 28 265 10 283 -7 7 -14 8 -17 3z"/>
 <path d="M3714 1004 c-49 -69 -56 -89 -41 -111 6 -9 1 -16 -18 -23 -27 -10 -27 -11 -10 -30 10 -11 15 -20 10 -20 -4 0 -2 -7 5 -15 16 -19 82 -20 119 -1 37 20 55 42 41 51 -8 5 -8 11 1 21 8 10 9 18 0 27 -6 8 -8 17 -5 20 3 3 3 11 -1 17 -4 7 -18 4 -43 -11 l-37 -21 35 31 c33 29 34 31 14 37 -20 5 -21 9 -11 40 7 24 7 38 0 45 -8 8 -25 -9 -59 -57z"/>
 <path d="M3599 936 c-4 -16 -7 -26 -9 -31 -1 -3 -3 -8 -4 -12 -1 -5 -7 -18 -14 -30 -7 -13 -10 -23 -7 -24 23 -5 45 -2 44 6 -1 6 -5 9 -9 8 -7 -2 -6 26 0 35 2 1 3 5 4 10 1 4 5 12 9 19 4 6 3 14 -3 18 -5 3 -11 4 -11 1z"/>
 <path d="M3861 927 c-9 -11 -8 -17 4 -27 12 -10 16 -9 21 5 9 23 -10 40 -25 22z"/>
 <path d="M2077 893 c-13 -12 -7 -58 13 -100 25 -56 18 -55 -16 3 -18 31 -30 42 -37 35 -7 -7 -1 -31 18 -78 22 -50 48 -86 107 -147 58 -61 80 -78 89 -69 9 9 7 18 -8 40 -37 53 -36 57 4 24 42 -34 78 -35 50 -3 -21 26 -32 46 -19 38 26 -16 19 14 -12 50 -18 21 -59 76 -90 122 -32 46 -61 81 -64 78 -3 -3 -10 -1 -17 4 -7 5 -15 7 -18 3z"/>
 <path d="M2167 883 c-7 -11 72 -111 115 -146 70 -56 60 -17 -18 69 -75 82 -88 92 -97 77z"/>
 <path d="M3005 830 c-3 -5 0 -13 9 -16 21 -8 61 -1 61 11 0 14 -62 19 -70 5z"/>
 <path d="M3325 831 c-7 -12 12 -24 25 -16 11 7 4 25 -10 25 -5 0 -11 -4 -15 -9z"/>
 <path d="M2335 821 c-3 -6 3 -15 14 -21 12 -6 22 -6 26 -1 3 6 -3 15 -14 21 -12 6 -22 6 -26 1z"/>
 <path d="M2885 821 c-7 -12 12 -24 25 -16 11 7 4 25 -10 25 -5 0 -11 -4 -15 -9z"/>
 <path d="M3425 820 c-3 -5 0 -13 9 -16 21 -8 61 -1 61 11 0 14 -62 19 -70 5z"/>
 <path d="M2465 811 c-7 -13 17 -24 40 -19 9 1 16 8 16 13 0 14 -48 19 -56 6z"/>
 <path d="M2795 811 c-7 -12 12 -24 25 -16 11 7 4 25 -10 25 -5 0 -11 -4 -15 -9z"/>
 <path d="M2595 800 c-8 -12 20 -24 35 -15 6 3 8 11 5 16 -8 12 -32 12 -40 -1z"/>
 <path d="M2655 801 c-7 -12 12 -24 25 -16 11 7 4 25 -10 25 -5 0 -11 -4 -15 -9z"/>
 <path d="M3216 716 c-51 -27 -72 -31 -150 -34 -50 -2 -118 1 -151 6 -65 11 -82 7 -65 -13 8 -9 -3 -9 -45 3 -40 11 -59 12 -66 5 -8 -8 -3 -16 17 -27 18 -11 21 -15 9 -12 -65 16 -115 29 -154 42 -52 17 -75 5 -39 -20 l23 -17 -26 6 c-32 8 -47 -10 -20 -24 10 -6 49 -20 87 -31 49 -14 57 -18 28 -14 -45 6 -66 -9 -36 -25 30 -16 183 -49 260 -57 40 -4 70 -9 68 -12 -3 -2 -73 1 -156 8 -108 9 -155 9 -162 2 -13 -13 12 -25 82 -40 l45 -10 -61 -1 c-33 0 -65 -6 -70 -11 -8 -8 -26 -7 -59 0 -68 15 -83 -3 -24 -29 54 -25 47 -26 -37 -5 -48 12 -68 14 -76 6 -9 -9 -2 -16 25 -27 20 -8 41 -15 47 -15 11 0 14 -13 4 -23 -3 -3 -31 3 -62 14 -61 21 -90 12 -51 -15 27 -18 126 -57 214 -83 74 -21 303 -25 327 -5 15 12 109 6 105 -7 -1 -3 3 -6 8 -6 6 0 9 4 7 9 -2 5 3 4 11 -2 9 -8 17 -8 24 -1 5 5 41 15 79 21 82 12 111 25 95 41 -8 8 -2 14 22 22 17 6 31 16 30 22 -2 12 44 33 127 60 37 12 55 23 55 34 0 9 23 34 50 56 101 81 114 122 23 73 -59 -32 -216 -80 -257 -79 -18 0 -10 5 29 18 30 10 69 25 85 33 54 29 131 128 121 155 -5 12 -17 6 -57 -32 -45 -42 -174 -113 -186 -102 -2 3 5 8 16 12 27 8 100 92 107 122 9 34 -11 51 -26 23 -8 -15 -15 -19 -22 -12 -8 8 -20 1 -41 -20 -45 -44 -108 -68 -196 -73 -65 -4 -68 -3 -26 4 77 13 88 18 130 61 52 54 35 65 -39 26z m62 -223 c-10 -2 -26 -2 -35 0 -10 3 -2 5 17 5 19 0 27 -2 18 -5z"/>
 </g>
<g id="layer5" fill="#f7bb84" stroke="none">
 <path d="M2586 3334 c-139 -25 -267 -89 -352 -175 l-46 -47 0 -162 c0 -89 3 -164 6 -167 2 -3 33 39 68 94 110 169 275 324 443 418 36 20 63 41 59 46 -7 13 -85 10 -178 -7z"/>
 <path d="M2840 3069 c-64 -26 -87 -82 -58 -143 18 -41 50 -55 120 -55 79 1 134 -13 171 -44 26 -20 28 -25 17 -49 -12 -26 -35 -38 -76 -38 -63 0 -187 -61 -167 -81 5 -5 30 -2 57 6 101 31 194 11 271 -58 l47 -41 -38 -20 c-29 -15 -62 -21 -124 -23 -202 -6 -265 -11 -265 -19 0 -5 27 -18 60 -29 33 -11 66 -24 73 -28 15 -10 32 0 32 18 0 19 46 30 79 19 24 -9 26 -15 31 -79 3 -39 8 -75 12 -81 4 -6 29 -17 55 -24 53 -14 75 -28 68 -40 -3 -5 -1 -11 4 -14 5 -4 13 -2 16 4 5 8 11 8 20 0 11 -9 18 -2 35 32 l20 43 -6 -50 c-4 -27 -20 -77 -37 -110 -38 -77 -110 -180 -115 -165 -8 24 10 83 33 104 12 12 28 39 34 61 14 52 -1 67 -88 88 -56 13 -68 14 -91 2 -44 -23 -54 -61 -36 -133 19 -73 19 -104 1 -207 -8 -44 -18 -118 -21 -165 -8 -101 -24 -137 -70 -156 -22 -9 -34 -21 -34 -33 0 -30 -24 -47 -87 -66 -32 -9 -78 -22 -103 -30 -25 -7 -71 -16 -102 -20 -64 -7 -76 -16 -51 -36 34 -29 54 -97 64 -222 14 -174 28 -259 45 -278 26 -29 151 -38 474 -35 263 2 311 5 345 20 52 22 112 82 121 119 3 16 0 98 -7 183 -10 123 -10 167 0 223 7 39 12 74 12 78 -1 5 -33 6 -71 5 -38 -2 -100 1 -138 8 -70 12 -137 43 -127 59 3 5 0 13 -5 16 -7 5 -5 11 6 20 16 11 14 15 -23 40 -67 44 -87 110 -52 177 13 24 71 38 154 37 l70 0 -72 -19 c-81 -21 -116 -37 -109 -49 3 -5 74 -11 158 -13 84 -3 164 -10 177 -15 l24 -9 -39 -37 c-33 -31 -77 -54 -142 -73 -33 -10 0 -30 62 -38 60 -8 70 -7 94 11 65 47 81 216 37 383 -31 122 -129 425 -194 604 -38 103 -64 157 -102 210 -105 145 -160 206 -212 236 -46 26 -61 30 -132 29 -44 0 -91 -5 -105 -10z"/>
 <path d="M2165 2550 c-4 -6 -3 -16 3 -22 6 -6 12 -6 17 2 4 6 3 16 -3 22 -6 6 -12 6 -17 -2z"/>
 <path d="M2495 2394 c-51 -26 -57 -38 -66 -130 -8 -73 -17 -105 -59 -194 -59 -127 -69 -177 -45 -213 22 -35 57 -40 140 -23 122 25 193 30 266 16 68 -13 70 -13 95 11 36 34 29 57 -76 260 -72 139 -101 184 -147 231 -31 32 -62 58 -68 58 -5 0 -23 -7 -40 -16z m35 -338 c0 -21 -17 -29 -46 -22 -21 6 -24 9 -14 21 16 19 60 20 60 1z"/>
 <path d="M2880 2212 c-37 -6 -43 -16 -31 -60 11 -40 74 -102 85 -84 6 10 -14 134 -23 143 -3 3 -17 3 -31 1z"/>
 <path d="M2032 2036 c-25 -33 -49 -153 -34 -168 8 -8 13 -7 18 6 3 9 20 24 36 32 29 15 30 17 26 75 -5 74 -18 90 -46 55z"/>
 <path d="M2045 1886 c-11 -8 -14 -16 -8 -19 6 -4 18 0 28 7 11 8 14 16 8 19 -6 4 -18 0 -28 -7z"/>
 <path d="M1996 1832 c-13 -22 -26 -146 -16 -156 14 -14 13 -27 -2 -23 -8 1 -13 -8 -13 -20 0 -13 3 -22 7 -20 4 1 15 -8 24 -21 21 -30 39 -15 52 41 5 23 11 47 13 52 4 12 -20 86 -32 100 -5 5 -9 17 -9 26 0 20 -16 34 -24 21z"/>
 <path d="M2547 1816 c-54 -15 -87 -41 -87 -68 0 -27 20 -31 70 -12 25 9 91 18 150 21 124 5 136 8 122 26 -26 31 -186 52 -255 33z"/>
 <path d="M2104 1766 c-4 -10 -2 -22 4 -28 8 -8 13 -7 18 6 4 10 2 22 -4 28 -8 8 -13 7 -18 -6z"/>
 <path d="M2065 1740 c-4 -6 -3 -16 3 -22 6 -6 12 -6 17 2 4 6 3 16 -3 22 -6 6 -12 6 -17 -2z"/>
 <path d="M2801 1676 c-7 -8 -8 -17 -3 -20 6 -3 15 1 21 8 7 8 8 17 3 20 -6 3 -15 -1 -21 -8z"/>
 <path d="M2434 1655 c-18 -45 94 -87 196 -73 118 16 146 48 42 48 -32 0 -82 7 -112 15 -94 27 -119 29 -126 10z"/>
 </g>
<g id="layer6" fill="#e69b6f" stroke="none">
 <path d="M2840 3424 c-127 -18 -268 -55 -364 -93 -144 -58 -309 -182 -401 -301 l-45 -59 19 -33 c22 -36 64 -188 82 -295 6 -38 18 -75 26 -84 7 -9 13 -20 11 -25 -2 -5 2 -10 7 -11 6 -2 10 0 10 5 2 29 115 203 151 233 16 12 17 12 9 -1 -5 -8 -25 -37 -45 -65 -95 -131 -123 -204 -150 -404 -27 -190 -27 -191 -48 -191 -10 0 -31 -13 -46 -28 -24 -26 -25 -30 -11 -42 10 -8 15 -30 15 -62 0 -38 4 -50 18 -56 15 -6 16 -11 6 -30 l-11 -23 -6 22 c-6 23 -6 23 -27 4 -17 -16 -21 -27 -16 -55 l5 -35 -19 25 c-17 22 -20 23 -25 7 -11 -28 1 -46 28 -41 21 3 27 -1 36 -27 12 -34 34 -35 39 -1 3 20 5 21 26 7 12 -8 25 -13 28 -9 3 3 11 -28 18 -68 11 -67 28 -138 82 -338 14 -53 22 -125 27 -250 9 -190 24 -252 73 -284 36 -24 303 -29 498 -10 133 13 370 17 625 11 106 -3 130 24 156 173 7 36 20 91 30 122 27 85 33 188 19 318 -7 63 -14 119 -17 123 -3 5 -12 1 -22 -8 -9 -8 -28 -24 -43 -35 -43 -33 -54 -124 -39 -314 15 -174 11 -202 -27 -239 -60 -57 -79 -60 -422 -63 -201 -1 -340 2 -385 10 l-70 11 -12 65 c-6 36 -16 124 -21 196 -6 76 -17 147 -27 170 -20 48 -62 94 -87 94 -35 0 -115 43 -132 70 -9 16 -16 31 -16 34 0 3 63 3 140 0 89 -3 156 0 182 7 23 6 56 12 73 14 16 2 44 8 60 13 18 5 44 5 63 0 61 -17 122 49 122 132 0 25 5 72 10 105 35 228 34 223 16 300 -13 56 -15 79 -6 94 19 37 41 41 116 22 67 -17 69 -19 66 -47 -2 -16 -11 -40 -20 -52 -52 -72 -64 -122 -39 -156 12 -17 18 -12 64 56 78 114 111 187 119 261 4 43 3 67 -5 71 -15 9 -61 -88 -62 -133 -1 -27 -3 -30 -6 -11 -2 14 -10 30 -16 35 -7 6 -17 19 -22 29 -6 10 -33 25 -60 34 l-50 17 -3 67 c-3 58 -6 70 -28 87 -14 11 -23 25 -19 31 11 18 -24 23 -75 9 -48 -14 -68 -35 -31 -33 15 0 17 -3 8 -16 -9 -15 -13 -16 -36 -4 -14 8 -34 14 -43 14 -10 0 -17 5 -15 11 1 6 -24 19 -55 28 l-57 16 32 37 c28 33 70 57 141 82 14 5 16 9 7 20 -10 12 -2 16 46 26 111 22 117 24 137 59 l20 34 -39 34 c-47 40 -97 55 -186 54 -62 0 -70 2 -89 26 -15 20 -20 38 -18 67 4 57 43 76 153 76 121 0 158 -25 279 -187 88 -119 99 -137 146 -268 96 -262 168 -499 158 -512 -9 -12 -5 -17 13 -15 12 1 49 -179 49 -241 l0 -65 -37 10 c-21 6 -94 14 -163 17 l-125 7 80 18 c111 25 111 24 96 39 -8 8 -49 12 -121 12 -126 0 -156 -14 -178 -80 -17 -53 -7 -90 39 -136 22 -22 36 -45 33 -53 -7 -19 11 -29 25 -13 7 10 25 12 58 8 27 -4 116 -6 198 -6 l150 0 5 70 5 70 9 -64 c5 -41 15 -70 28 -83 49 -49 60 16 23 133 -17 56 -28 119 -33 199 -9 122 -33 198 -64 193 -10 -2 -26 47 -60 189 -56 232 -86 296 -253 548 -124 187 -161 232 -207 251 -16 6 -27 14 -24 16 7 7 80 -33 100 -56 29 -32 35 -16 16 42 -17 52 -52 199 -68 287 l-8 45 -89 2 c-50 0 -133 -5 -185 -13z m-211 -156 c-117 -77 -297 -253 -367 -361 l-50 -77 -4 137 -3 138 37 40 c73 78 208 144 344 169 146 26 149 23 43 -46z m294 -125 c-13 -2 -35 -2 -50 0 -16 2 -5 4 22 4 28 0 40 -2 28 -4z m-168 -30 c-16 -9 -46 -28 -65 -43 -46 -35 -65 -46 -56 -32 9 15 126 92 140 92 6 -1 -2 -8 -19 -17z m-162 -771 c35 -35 73 -97 137 -221 97 -187 111 -229 85 -251 -13 -11 -27 -11 -85 0 -73 14 -130 10 -267 -17 -77 -15 -84 -15 -109 2 -24 15 -26 22 -21 59 8 55 44 138 65 150 30 18 51 14 49 -7 -3 -28 46 -56 70 -41 10 6 23 21 29 32 6 12 13 20 16 17 3 -3 10 1 17 8 9 11 8 17 -4 27 -12 10 -16 9 -20 -2 -4 -10 -16 -13 -35 -10 -17 2 -38 -2 -48 -9 -14 -12 -14 -10 1 8 25 29 12 51 -14 27 -32 -29 -42 -6 -24 61 8 33 15 77 15 100 0 62 9 82 43 99 18 9 37 16 42 16 6 0 32 -22 58 -48z m274 -87 c0 -8 -4 -12 -9 -9 -14 9 -48 -26 -49 -50 -1 -16 -2 -17 -6 -4 -6 23 14 57 40 68 12 5 22 9 23 9 0 1 1 -6 1 -14z m40 -114 c9 -46 9 -49 -9 -38 -10 7 -21 21 -24 32 -3 11 -8 28 -10 38 -4 12 0 17 14 17 15 0 21 -11 29 -49z m-173 -351 c12 -4 -17 -9 -70 -13 -49 -3 -109 -13 -133 -21 -53 -19 -51 -19 -51 -1 0 43 168 66 254 35z m601 -35 c73 0 120 -5 140 -14 17 -8 33 -14 38 -13 4 1 7 -2 7 -7 0 -16 -105 -53 -167 -58 -65 -6 -117 2 -109 16 3 4 -6 19 -20 32 -14 13 -30 32 -36 42 -9 17 -7 18 14 11 12 -5 73 -8 133 -9z m240 -63 c-9 -28 -23 -56 -33 -61 -23 -12 -73 -16 -94 -6 -14 6 -8 12 30 31 26 13 61 39 77 57 17 19 31 33 32 32 2 -1 -4 -25 -12 -53z m-738 20 c-17 -18 -25 -35 -21 -45 4 -12 -9 -20 -68 -38 -40 -12 -96 -24 -124 -28 -47 -7 -134 5 -162 23 -19 12 -14 28 8 24 14 -2 25 5 33 21 17 34 80 51 217 60 63 4 121 9 129 9 9 1 4 -9 -12 -26z"/>
 <path d="M2516 1651 c-4 -5 -2 -12 4 -16 5 -3 10 -3 10 1 0 3 6 1 14 -5 10 -8 16 -9 21 -1 3 5 4 11 1 11 -3 1 -9 2 -13 3 -5 1 -13 5 -20 9 -6 4 -14 3 -17 -2z"/>
 <path d="M2595 1631 c-7 -12 12 -24 25 -16 11 7 4 25 -10 25 -5 0 -11 -4 -15 -9z"/>
 <path d="M2935 2691 c-9 -16 13 -23 68 -21 55 2 104 -14 149 -49 15 -13 29 -17 33 -12 6 11 -69 70 -92 72 -27 3 -31 4 -39 12 -11 10 -112 9 -119 -2z"/>
 <path d="M2920 2647 c-59 -13 -83 -24 -76 -35 7 -12 259 -7 263 5 11 33 -95 51 -187 30z"/>
 <path d="M3196 2592 c-7 -13 18 -34 29 -24 5 4 5 2 1 -5 -7 -13 10 -28 18 -15 3 5 -5 19 -18 31 -13 13 -27 18 -30 13z"/>
 <path d="M3176 2548 c-9 -5 -38 -13 -62 -16 -49 -8 -63 -25 -25 -30 25 -4 107 23 116 38 9 14 -9 19 -29 8z"/>
 <path d="M1995 1940 c-4 -6 -3 -16 3 -22 6 -6 12 -6 17 2 4 6 3 16 -3 22 -6 6 -12 6 -17 -2z"/>
 <path d="M2104 1736 c-3 -8 -7 -20 -8 -28 -2 -12 -54 -118 -62 -127 -2 -2 -10 2 -19 9 -8 7 -15 9 -15 4 0 -4 -6 0 -13 11 -20 27 -37 10 -37 -38 0 -48 18 -90 41 -95 9 -2 31 22 56 60 44 67 58 97 66 144 3 16 8 36 12 45 3 10 2 20 -4 24 -6 3 -14 0 -17 -9z m-84 -186 c-13 -24 -16 -25 -24 -4 -3 8 -2 12 3 9 5 -3 12 -1 16 5 11 19 16 10 5 -10z"/>
 <path d="M2037 1733 c-3 -5 -2 -15 3 -23 5 -7 3 -23 -3 -37 -14 -32 6 -55 22 -24 17 31 -4 113 -22 84z"/>
 <path d="M1970 1675 c-10 -11 -10 -19 -2 -27 15 -15 44 -2 40 19 -4 23 -22 27 -38 8z"/>
 <path d="M3225 1570 c-11 -17 5 -32 21 -19 7 6 11 15 8 20 -7 12 -21 11 -29 -1z"/>
 <path d="M2856 1535 c-16 -24 -6 -45 11 -22 19 24 23 36 14 41 -5 3 -16 -5 -25 -19z"/>
 <path d="M3335 1510 c-7 -11 3 -15 52 -24 40 -7 53 11 18 24 -34 13 -62 13 -70 0z"/>
 <path d="M2785 1500 c-8 -12 20 -24 35 -15 6 3 8 11 5 16 -8 12 -32 12 -40 -1z"/>
 <path d="M3525 1501 c-7 -12 12 -24 25 -16 11 7 4 25 -10 25 -5 0 -11 -4 -15 -9z"/>
 <path d="M2735 1481 c-7 -12 12 -24 25 -16 11 7 4 25 -10 25 -5 0 -11 -4 -15 -9z"/>
 <path d="M2665 1460 c-4 -6 -10 -8 -15 -5 -5 3 -11 1 -14 -4 -4 -5 -2 -12 3 -15 5 -4 12 -2 16 4 4 6 10 8 15 5 5 -3 11 -1 14 4 4 5 2 12 -3 15 -5 4 -12 2 -16 -4z"/>
 </g>
<g id="layer7" fill="#181315" stroke="none">
 <path d="M1445 4433 c-159 -8 -435 -37 -565 -59 -177 -29 -390 -81 -409 -99 -11 -11 -8 -29 19 -112 81 -243 158 -405 257 -543 53 -75 62 -83 147 -126 104 -52 332 -155 421 -189 33 -13 101 -39 152 -58 50 -20 157 -67 237 -107 112 -54 161 -84 209 -129 34 -31 76 -67 93 -79 18 -12 34 -32 37 -44 2 -13 20 -81 40 -153 56 -210 62 -259 48 -383 -12 -112 -19 -185 -20 -214 -1 -11 -6 -15 -16 -12 -27 11 -63 -24 -95 -90 -28 -56 -33 -81 -41 -182 -5 -65 -13 -143 -19 -173 -5 -30 -10 -81 -10 -114 0 -52 3 -62 31 -89 l30 -31 -6 -101 c-3 -55 -11 -168 -17 -251 -14 -207 -13 -228 17 -293 15 -31 28 -65 30 -75 5 -20 30 -58 96 -143 32 -40 45 -64 38 -71 -11 -11 118 -139 193 -191 52 -35 163 -83 254 -108 85 -23 327 -28 423 -8 40 8 79 13 86 11 38 -15 252 53 345 109 56 34 219 191 239 232 7 12 16 20 21 17 15 -9 40 57 40 107 0 47 1 49 40 64 22 9 49 28 60 41 27 35 45 102 31 116 -6 6 -11 24 -11 41 0 16 -18 68 -39 115 -34 73 -42 106 -56 216 -16 128 -32 198 -76 325 -39 114 -49 134 -61 122 -9 -9 -7 -54 7 -174 22 -193 22 -332 0 -408 -8 -30 -24 -96 -35 -145 -32 -155 -43 -167 -134 -166 -327 4 -528 1 -611 -10 -115 -14 -488 -14 -514 1 -10 5 -29 31 -41 57 -21 42 -24 67 -27 200 -4 166 -14 226 -66 415 -20 70 -39 155 -43 188 -7 67 -14 76 -44 60 -17 -9 -20 -8 -20 10 0 11 -5 40 -12 64 -9 36 -9 50 1 70 7 13 10 29 6 36 -10 16 -54 4 -83 -23 l-23 -21 7 44 c11 76 52 150 90 166 18 7 35 17 38 22 3 5 12 67 21 138 31 254 63 332 222 537 17 22 29 45 26 51 -12 19 -171 -176 -207 -254 -13 -28 -27 -47 -30 -42 -3 6 -13 50 -21 99 -17 99 -59 251 -82 301 -21 44 -10 63 87 161 200 201 468 305 846 327 l111 7 7 -59 c4 -32 22 -117 40 -187 l33 -128 -27 26 c-61 58 -247 92 -359 65 -69 -16 -252 -154 -237 -178 4 -7 33 11 78 48 106 89 141 103 258 103 199 -1 243 -32 396 -278 17 -27 59 -94 93 -147 81 -128 112 -208 166 -433 25 -103 48 -192 51 -197 5 -7 11 -5 19 5 20 28 36 -26 45 -158 6 -83 17 -147 35 -204 15 -45 26 -95 25 -109 -3 -43 0 -48 15 -28 20 27 19 63 -6 149 -12 43 -22 115 -26 182 -6 137 -23 196 -69 234 -24 19 -37 39 -40 62 -10 67 -45 215 -65 278 -31 97 -79 187 -192 354 -102 153 -127 203 -130 266 -2 33 0 34 77 67 43 19 149 59 235 88 263 90 362 139 441 218 56 56 77 104 155 361 35 117 78 258 96 315 19 64 28 107 22 113 -20 20 -545 94 -852 120 -165 14 -837 7 -1086 -11 -484 -35 -802 -90 -1168 -202 -92 -28 -171 -48 -175 -44 -11 12 42 49 141 98 126 63 257 110 427 155 79 21 143 43 142 48 -2 10 -116 14 -227 8z m621 -2585 c0 -24 4 -61 8 -83 l6 -40 -18 40 c-30 64 -34 92 -16 109 8 9 16 16 17 16 1 0 2 -19 3 -42z m-7 -164 c1 -6 -10 -32 -23 -58 -17 -34 -25 -42 -30 -31 -8 23 -26 9 -26 -21 0 -32 18 -66 30 -59 5 3 28 42 50 87 41 83 53 91 23 16 -25 -67 -82 -141 -98 -128 -29 24 -27 75 11 290 l7 35 28 -60 c15 -33 28 -65 28 -71z m141 -427 c0 -23 -18 9 -24 43 l-7 35 16 -34 c8 -18 15 -38 15 -44z m1514 -109 c-4 -51 -11 -100 -16 -108 -8 -13 -9 -12 -4 2 6 21 -4 31 -20 17 -8 -7 -6 8 6 41 11 29 22 72 26 96 11 74 15 49 8 -48z m-1520 5 c9 -18 14 -33 12 -33 -6 0 -36 55 -36 66 0 11 5 3 24 -33z m7 -114 c16 -34 28 -64 25 -67 -3 -3 8 -30 25 -60 17 -30 28 -56 26 -59 -9 -8 -71 62 -96 108 -16 29 -19 40 -9 31 31 -25 28 8 -7 91 -4 9 -4 17 -1 17 3 0 20 -27 37 -61z m1548 -35 c-5 -15 -7 -35 -4 -45 7 -22 -31 -47 -47 -31 -7 7 0 25 21 56 36 52 45 58 30 20z m33 -146 c-11 -13 -20 -27 -19 -33 1 -5 -13 -11 -32 -13 -20 -2 -31 0 -27 7 4 5 -2 14 -11 20 -16 9 -15 10 8 11 15 0 42 7 60 15 45 19 46 19 21 -7z m-1649 -42 c11 4 53 -44 82 -96 8 -13 6 -13 -7 -2 -11 8 -18 9 -23 3 -3 -6 12 -30 35 -54 51 -56 53 -73 2 -24 -21 21 -41 34 -45 31 -4 -4 7 -32 23 -63 l31 -56 -60 63 c-34 34 -70 80 -81 102 -28 54 -17 51 16 -6 42 -71 51 -40 15 51 -35 86 -38 99 -16 68 9 -12 21 -20 28 -17z m1102 -126 c-26 -28 -78 -40 -170 -38 l-80 1 85 7 c54 4 101 14 130 27 57 27 57 27 35 3z m170 -7 c-31 -50 -56 -71 -108 -94 -87 -39 -314 -38 -527 2 -77 15 -91 19 -85 29 3 5 -3 14 -12 20 -14 9 -15 11 -2 7 65 -20 254 -57 267 -52 16 6 8 20 -18 28 -8 2 -1 3 15 0 144 -20 197 -24 243 -18 59 7 118 29 144 52 14 12 21 13 32 4 12 -10 19 -6 37 18 28 38 37 41 14 4z m94 -54 c-51 -73 -160 -109 -349 -116 -126 -5 -384 17 -400 34 -3 3 11 3 30 -1 77 -14 403 -19 474 -7 75 13 234 83 243 107 3 8 9 14 15 14 5 0 -1 -14 -13 -31z m91 -74 c-7 -8 -40 -33 -74 -56 -33 -22 -61 -46 -61 -52 0 -6 -12 -14 -26 -18 -15 -3 -55 -18 -90 -32 -35 -14 -88 -29 -117 -33 -29 -3 -54 -9 -56 -13 -5 -8 -314 7 -363 17 -23 5 43 8 172 8 243 -1 293 15 83 26 -73 4 -169 12 -213 16 l-80 9 77 2 c42 0 80 6 83 11 8 13 -3 16 -95 28 l-75 10 98 -5 c162 -8 398 -5 470 6 74 13 208 53 247 76 32 18 35 18 20 0z m-594 -235 c104 0 154 4 162 12 7 7 12 10 13 8 8 -47 6 -49 -48 -56 -53 -6 -225 5 -395 27 -70 9 -86 15 -85 28 1 15 9 15 101 -1 64 -11 156 -17 252 -18z m-298 -47 c-10 -2 -26 -2 -35 0 -10 3 -2 5 17 5 19 0 27 -2 18 -5z m80 -10 c-10 -2 -28 -2 -40 0 -13 2 -5 4 17 4 22 1 32 -1 23 -4z"/>
 <path d="M2905 2605 c-87 -19 -190 -58 -185 -70 9 -17 444 -4 495 15 32 12 26 25 -17 34 -18 3 -58 13 -88 21 -65 18 -124 18 -205 0z m193 -30 c-2 -2 -39 -5 -83 -8 -44 -3 -102 -8 -130 -12 -62 -7 -40 10 25 20 25 4 46 7 47 8 1 1 34 0 73 -1 39 -2 70 -5 68 -7z"/>
 <path d="M3005 2291 c-7 -12 12 -24 25 -16 11 7 4 25 -10 25 -5 0 -11 -4 -15 -9z"/>
 <path d="M3065 2291 c-7 -12 74 -51 105 -51 23 0 37 19 18 24 -16 4 -89 27 -104 33 -7 2 -15 0 -19 -6z"/>
 <path d="M2820 2251 c-17 -16 -30 -39 -30 -51 0 -23 24 -86 41 -107 19 -22 30 -4 15 25 -29 56 -29 87 -1 120 34 41 14 52 -25 13z"/>
 <path d="M3216 2271 c-4 -5 -2 -12 4 -16 15 -10 12 -50 -9 -105 -11 -27 -15 -52 -10 -55 12 -8 59 89 59 123 0 30 -33 71 -44 53z"/>
 <path d="M2912 2251 c-39 -7 -43 -25 -8 -29 30 -4 69 15 61 29 -4 5 -9 8 -13 8 -4 -1 -22 -4 -40 -8z"/>
 <path d="M3174 1768 c-4 -5 8 -25 26 -43 18 -18 29 -38 26 -44 -11 -18 37 -35 99 -34 62 0 168 31 194 57 12 13 9 17 -19 35 -19 11 -37 18 -41 15 -4 -2 -10 0 -14 6 -8 13 -72 13 -80 -1 -4 -6 3 -13 15 -16 30 -8 24 -57 -8 -61 -23 -3 -23 -3 -7 21 15 24 15 26 -12 45 -31 21 -169 37 -179 20z m294 -55 c-15 -18 -25 -16 -31 6 -7 26 1 32 24 18 13 -8 15 -15 7 -24z m-208 7 c0 -11 -2 -20 -3 -20 -2 0 -12 9 -22 20 -18 19 -17 20 3 20 15 0 22 -6 22 -20z m50 5 c-10 -12 -10 -18 0 -30 9 -11 9 -15 1 -15 -15 0 -25 26 -17 45 3 8 11 15 17 15 8 0 8 -4 -1 -15z"/>
 <path d="M2846 1753 c-4 -5 -12 -8 -17 -8 -5 0 -9 -4 -10 -10 0 -12 -39 -54 -60 -65 -13 -8 -15 -5 -11 15 3 17 12 25 31 27 14 2 24 8 21 13 -6 12 -177 13 -205 1 -11 -4 -35 -10 -54 -12 -19 -2 -44 -12 -55 -23 l-20 -20 50 -23 c67 -30 251 -39 289 -14 25 16 26 43 2 30 -7 -4 6 12 28 35 26 28 36 44 29 51 -6 6 -14 7 -18 3z m-221 -68 c0 -14 -6 -25 -12 -25 -7 0 -13 9 -13 19 0 11 6 22 13 24 6 3 12 6 12 6 0 1 0 -10 0 -24z m88 6 c6 -25 -3 -37 -30 -37 -22 0 -22 0 -3 21 11 12 17 25 13 28 -3 4 -2 7 4 7 6 0 13 -9 16 -19z"/>
 </g>
<g id="layer8" fill="#e8f3b1" stroke="none">
 <path d="M1649 4447 c-6 -13 -6 -38 0 -42 4 -2 21 -1 37 4 40 10 38 36 -3 38 -18 1 -33 1 -34 0z"/>
 <path d="M1395 4430 c-8 -12 20 -24 35 -15 6 3 8 11 5 16 -8 12 -32 12 -40 -1z"/>
 <path d="M1245 4420 c-8 -12 20 -24 35 -15 6 3 8 11 5 16 -8 12 -32 12 -40 -1z"/>
 <path d="M1135 4411 c-7 -12 12 -24 25 -16 11 7 4 25 -10 25 -5 0 -11 -4 -15 -9z"/>
 <path d="M1596 4411 c-4 -6 -13 -8 -20 -5 -17 6 -31 -12 -16 -21 5 -3 16 -3 23 2 6 4 17 8 22 8 14 0 19 19 7 23 -6 2 -13 -1 -16 -7z"/>
 <path d="M1045 4401 c-7 -12 12 -24 25 -16 11 7 4 25 -10 25 -5 0 -11 -4 -15 -9z"/>
 <path d="M2495 4380 c-8 -12 20 -24 35 -15 6 3 8 11 5 16 -8 12 -32 12 -40 -1z"/>
 <path d="M3375 4380 c-8 -12 20 -24 35 -15 6 3 8 11 5 16 -8 12 -32 12 -40 -1z"/>
 <path d="M1431 4369 c-16 -6 -21 -13 -14 -20 13 -13 67 7 58 21 -7 12 -12 12 -44 -1z"/>
 <path d="M2305 4370 c-8 -12 20 -24 35 -15 6 3 8 11 5 16 -8 12 -32 12 -40 -1z"/>
 <path d="M3485 4371 c-7 -12 12 -24 25 -16 11 7 4 25 -10 25 -5 0 -11 -4 -15 -9z"/>
 <path d="M785 4361 c-7 -12 12 -24 25 -16 11 7 4 25 -10 25 -5 0 -11 -4 -15 -9z"/>
 <path d="M2165 4360 c-8 -12 20 -24 35 -15 6 3 8 11 5 16 -8 12 -32 12 -40 -1z"/>
 <path d="M3575 4361 c-7 -12 12 -24 25 -16 11 7 4 25 -10 25 -5 0 -11 -4 -15 -9z"/>
 <path d="M735 4351 c-7 -12 12 -24 25 -16 11 7 4 25 -10 25 -5 0 -11 -4 -15 -9z"/>
 <path d="M2055 4351 c-7 -12 12 -24 25 -16 11 7 4 25 -10 25 -5 0 -11 -4 -15 -9z"/>
 <path d="M3665 4351 c-7 -12 12 -24 25 -16 11 7 4 25 -10 25 -5 0 -11 -4 -15 -9z"/>
 <path d="M1965 4341 c-7 -12 12 -24 25 -16 11 7 4 25 -10 25 -5 0 -11 -4 -15 -9z"/>
 <path d="M3745 4341 c-7 -12 12 -24 25 -16 11 7 4 25 -10 25 -5 0 -11 -4 -15 -9z"/>
 <path d="M646 4331 c-4 -6 -13 -8 -20 -5 -8 3 -17 1 -20 -5 -4 -6 -13 -8 -20 -5 -8 3 -17 1 -20 -5 -4 -6 -13 -8 -20 -5 -17 7 -30 -12 -16 -21 6 -4 17 -2 24 4 7 6 16 8 19 4 4 -3 13 -1 20 5 8 7 17 9 20 6 3 -3 12 -2 19 2 7 5 18 9 23 9 14 0 19 19 7 23 -6 2 -13 -1 -16 -7z"/>
 <path d="M1292 4325 c-18 -8 -36 -15 -40 -15 -4 -1 -17 -8 -29 -16 -13 -8 -23 -12 -23 -9 0 3 -14 -2 -31 -11 -22 -11 -28 -19 -21 -26 8 -8 19 -5 39 8 15 10 32 17 37 16 4 -2 15 3 23 9 8 7 26 14 40 15 29 3 60 28 46 37 -4 3 -23 -1 -41 -8z"/>
 <path d="M1875 4331 c-7 -12 12 -24 25 -16 11 7 4 25 -10 25 -5 0 -11 -4 -15 -9z"/>
 <path d="M3825 4331 c-7 -12 12 -24 25 -16 11 7 4 25 -10 25 -5 0 -11 -4 -15 -9z"/>
 <path d="M1805 4321 c-7 -12 12 -24 25 -16 11 7 4 25 -10 25 -5 0 -11 -4 -15 -9z"/>
 <path d="M3895 4321 c-7 -12 12 -24 25 -16 11 7 4 25 -10 25 -5 0 -11 -4 -15 -9z"/>
 <path d="M1735 4311 c-7 -12 12 -24 25 -16 11 7 4 25 -10 25 -5 0 -11 -4 -15 -9z"/>
 <path d="M3965 4311 c-7 -12 12 -24 25 -16 11 7 4 25 -10 25 -5 0 -11 -4 -15 -9z"/>
 <path d="M4025 4301 c-7 -12 12 -24 25 -16 11 7 4 25 -10 25 -5 0 -11 -4 -15 -9z"/>
 <path d="M1605 4291 c-7 -12 12 -24 25 -16 11 7 4 25 -10 25 -5 0 -11 -4 -15 -9z"/>
 <path d="M4095 4291 c-7 -12 12 -24 25 -16 11 7 4 25 -10 25 -5 0 -11 -4 -15 -9z"/>
 <path d="M1555 4281 c-7 -12 12 -24 25 -16 11 7 4 25 -10 25 -5 0 -11 -4 -15 -9z"/>
 <path d="M455 4270 c-4 -6 -3 -16 3 -22 6 -6 12 -6 17 2 4 6 3 16 -3 22 -6 6 -12 6 -17 -2z"/>
 <path d="M1416 4251 c-4 -6 -13 -8 -20 -5 -8 3 -17 1 -20 -5 -4 -6 -13 -8 -20 -5 -8 3 -17 1 -20 -5 -4 -6 -13 -8 -20 -5 -8 3 -17 0 -21 -5 -3 -6 -10 -9 -15 -6 -5 3 -21 0 -37 -6 -15 -7 -39 -13 -52 -15 -27 -3 -58 -29 -44 -37 4 -3 24 2 43 10 19 9 41 15 47 14 7 -1 23 4 35 11 13 7 28 11 35 10 6 -1 14 2 18 7 3 6 12 8 19 5 8 -3 17 0 21 5 3 6 11 9 16 6 5 -4 15 -3 22 2 6 4 17 8 22 8 14 0 19 19 7 23 -6 2 -13 -1 -16 -7z"/>
 <path d="M1045 4214 c-75 -44 -110 -77 -102 -98 8 -21 40 -19 112 7 63 23 73 44 18 39 -18 -2 -33 -1 -33 2 0 3 20 19 45 36 25 17 43 35 40 41 -9 13 -13 11 -80 -27z"/>
 <path d="M4325 4179 c-4 -5 31 -45 77 -87 114 -105 342 -324 404 -389 39 -40 54 -50 62 -40 6 6 22 54 37 106 25 85 26 100 16 145 -18 82 -43 114 -114 146 -93 42 -210 78 -327 101 -58 11 -115 22 -127 24 -12 3 -25 0 -28 -6z"/>
 <path d="M495 4150 c-4 -6 -3 -16 3 -22 6 -6 12 -6 17 2 4 6 3 16 -3 22 -6 6 -12 6 -17 -2z"/>
 <path d="M409 4096 c-41 -93 -48 -188 -23 -306 8 -41 18 -108 22 -149 l7 -74 60 -41 c33 -23 119 -82 190 -131 72 -49 245 -175 385 -281 237 -179 343 -259 858 -652 242 -184 219 -169 234 -154 19 19 16 204 -5 287 -10 39 -25 99 -33 135 -35 151 -55 200 -86 216 -16 8 -61 44 -99 79 -56 52 -100 79 -215 136 -80 39 -187 86 -237 106 -51 19 -119 45 -152 58 -82 31 -333 145 -425 192 -64 32 -83 48 -126 107 -66 88 -117 183 -174 322 -40 99 -51 117 -95 153 -27 23 -53 41 -58 41 -4 0 -17 -20 -28 -44z"/>
 <path d="M4195 4130 c-4 -6 -3 -16 3 -22 6 -6 12 -6 17 2 4 6 3 16 -3 22 -6 6 -12 6 -17 -2z"/>
 <path d="M4157 4003 c-7 -11 -56 -176 -60 -199 -1 -10 -6 -25 -10 -31 -5 -7 -5 -18 -2 -23 9 -14 27 -1 21 15 -10 28 9 24 43 -8 20 -19 86 -74 146 -123 61 -48 193 -160 294 -249 101 -88 203 -177 228 -199 51 -44 66 -39 53 18 -5 21 -12 72 -15 112 l-7 73 -121 108 c-67 59 -191 170 -277 247 -85 76 -185 168 -222 203 -36 35 -68 60 -71 56z"/>
 <path d="M4049 3653 c-39 -110 -54 -136 -103 -181 -68 -61 -183 -117 -386 -187 -209 -72 -360 -134 -367 -152 -3 -7 3 -43 13 -80 14 -52 41 -100 121 -219 157 -235 189 -306 238 -540 25 -119 30 -131 60 -156 36 -30 65 -100 65 -154 0 -36 17 -55 26 -29 8 19 -1 25 279 -199 219 -174 296 -239 509 -423 77 -68 147 -123 154 -123 7 0 55 42 107 94 86 85 95 97 95 131 0 29 -7 44 -33 69 -28 27 -294 259 -441 386 -60 51 -308 268 -536 469 -158 140 -240 215 -205 190 11 -8 45 -33 75 -55 30 -22 96 -70 145 -106 275 -199 766 -564 890 -661 33 -25 63 -43 67 -39 4 4 10 73 12 154 3 80 15 206 26 279 11 72 20 133 20 135 0 2 -24 23 -53 46 -117 94 -301 244 -326 267 -43 38 24 -7 286 -197 48 -34 91 -58 95 -54 27 27 41 611 15 662 -11 22 -94 96 -303 271 -368 309 -515 429 -524 429 -6 0 -15 -12 -21 -27z"/>
 <path d="M345 3218 c-21 -63 -65 -285 -65 -332 0 -8 37 -41 83 -73 74 -52 123 -89 308 -233 103 -81 937 -756 954 -773 17 -16 -36 13 -95 53 -30 20 -265 177 -521 348 -256 171 -522 351 -590 400 -71 51 -128 86 -133 81 -11 -10 14 -233 45 -414 37 -215 49 -309 49 -397 0 -83 1 -87 29 -111 16 -13 58 -41 93 -61 102 -59 118 -70 448 -289 308 -203 316 -208 355 -202 56 9 560 17 617 9 38 -5 47 -10 50 -27 2 -12 8 -21 13 -20 6 2 13 60 17 132 3 71 9 135 13 140 3 6 -5 15 -19 21 -14 5 -30 18 -35 29 -14 25 -14 111 -1 182 6 30 15 107 20 170 5 63 11 123 12 134 2 15 -57 65 -269 225 -332 249 -513 385 -569 425 -43 31 -284 211 -364 272 -193 148 -428 323 -434 323 -3 0 -9 -6 -11 -12z"/>
 <path d="M3075 2591 c-7 -12 12 -24 25 -16 11 7 4 25 -10 25 -5 0 -11 -4 -15 -9z"/>
 <path d="M2865 2581 c-7 -12 12 -24 25 -16 11 7 4 25 -10 25 -5 0 -11 -4 -15 -9z"/>
 <path d="M3125 2580 c-4 -6 -3 -16 3 -22 6 -6 12 -6 17 2 4 6 3 16 -3 22 -6 6 -12 6 -17 -2z"/>
 <path d="M2925 2561 c-7 -12 12 -24 25 -16 11 7 4 25 -10 25 -5 0 -11 -4 -15 -9z"/>
 <path d="M2115 2250 c-4 -6 -3 -16 3 -22 6 -6 12 -6 17 2 4 6 3 16 -3 22 -6 6 -12 6 -17 -2z"/>
 <path d="M3211 1747 c-6 -8 -8 -17 -5 -20 10 -9 45 13 39 24 -9 13 -21 11 -34 -4z"/>
 <path d="M383 1727 c-6 -6 -17 -61 -26 -122 -24 -165 -10 -208 96 -289 125 -94 247 -126 479 -125 170 1 253 9 252 24 0 6 -27 27 -60 47 -110 68 -249 153 -259 157 -22 9 -364 237 -416 277 -43 33 -59 40 -66 31z"/>
 <path d="M3726 1722 c-3 -6 -2 -22 4 -37 18 -46 12 -101 -11 -117 l-21 -14 21 -74 c11 -41 26 -120 32 -175 6 -55 15 -104 19 -108 4 -4 38 -12 76 -17 38 -5 107 -17 154 -25 77 -15 101 -15 249 -1 90 8 169 20 175 26 8 8 5 16 -11 28 -90 71 -220 170 -413 315 -124 93 -235 178 -246 189 -13 11 -24 15 -28 10z"/>
 <path d="M2771 1686 c-7 -8 -8 -17 -3 -20 6 -3 15 1 21 8 7 8 8 17 3 20 -6 3 -15 -1 -21 -8z"/>
 <path d="M2725 1661 c-7 -12 12 -24 25 -16 11 7 4 25 -10 25 -5 0 -11 -4 -15 -9z"/>
 <path d="M3775 1160 c-4 -6 -3 -16 3 -22 6 -6 12 -6 17 2 4 6 3 16 -3 22 -6 6 -12 6 -17 -2z"/>
 <path d="M1955 970 c-4 -6 -3 -16 3 -22 6 -6 12 -6 17 2 4 6 3 16 -3 22 -6 6 -12 6 -17 -2z"/>
 <path d="M3755 751 c-7 -12 12 -24 25 -16 11 7 4 25 -10 25 -5 0 -11 -4 -15 -9z"/>
 <path d="M2027 704 c-3 -6 4 -23 17 -39 13 -15 25 -24 29 -19 3 6 -4 23 -17 39 -13 15 -25 24 -29 19z"/>
 <path d="M3716 641 c-6 -9 9 -51 18 -51 2 0 9 6 15 13 8 11 6 18 -8 31 -12 11 -21 14 -25 7z"/>
 <path d="M2076 632 c-3 -6 1 -15 8 -21 8 -7 17 -8 20 -3 3 6 -1 15 -8 21 -8 7 -17 8 -20 3z"/>
 <path d="M3694 579 c-10 -17 13 -36 27 -22 12 12 4 33 -11 33 -5 0 -12 -5 -16 -11z"/>
 <path d="M2146 542 c-3 -6 1 -15 8 -21 8 -7 17 -8 20 -3 3 6 -1 15 -8 21 -8 7 -17 8 -20 3z"/>
 <path d="M3531 406 c-13 -13 -18 -26 -13 -30 5 -3 19 5 31 18 13 13 18 26 13 30 -5 3 -19 -5 -31 -18z"/>
 <path d="M2326 342 c-3 -6 1 -15 8 -21 8 -7 17 -8 20 -3 3 6 -1 15 -8 21 -8 7 -17 8 -20 3z"/>
 <path d="M3095 241 c-3 -6 -12 -8 -19 -5 -8 3 -17 1 -20 -5 -4 -6 -13 -8 -20 -5 -17 6 -31 -12 -16 -21 5 -3 16 -3 23 2 6 4 25 8 41 8 16 0 31 6 33 12 5 15 -14 26 -22 14z"/>
 <path d="M2615 221 c-7 -12 12 -24 25 -16 11 7 4 25 -10 25 -5 0 -11 -4 -15 -9z"/>
 <path d="M2965 211 c-7 -12 12 -24 25 -16 11 7 4 25 -10 25 -5 0 -11 -4 -15 -9z"/>
 <path d="M2915 201 c-7 -12 12 -24 25 -16 11 7 4 25 -10 25 -5 0 -11 -4 -15 -9z"/>
 </g>
<g id="layer9" fill="#fefefd" stroke="none">
 <path d="M0 2295 l0 -2295 2640 0 2640 0 0 2295 0 2295 -2640 0 -2640 0 0 -2295z m1620 2121 c0 -2 -30 -9 -67 -16 -37 -6 -73 -16 -79 -21 -7 -5 -29 -12 -50 -15 -21 -2 -61 -16 -90 -29 -29 -14 -58 -25 -64 -25 -10 0 -20 -4 -77 -34 -17 -9 -36 -16 -41 -16 -11 0 -106 -62 -134 -87 -14 -12 -15 -19 -7 -29 6 -8 14 -12 18 -10 3 2 30 7 60 10 29 3 59 10 66 16 8 6 24 13 37 14 13 2 36 8 51 15 16 6 32 9 37 6 5 -3 12 0 15 6 4 5 13 8 21 5 7 -3 16 -1 20 5 3 6 12 8 20 5 7 -3 16 -1 20 5 3 6 12 8 20 5 7 -3 16 -2 18 3 3 4 21 8 39 9 19 1 54 8 78 16 23 8 47 13 51 10 5 -3 15 0 23 6 8 6 18 9 22 7 5 -3 31 -1 58 5 28 5 61 11 75 13 14 2 45 6 70 10 94 13 273 32 375 39 207 16 346 20 750 20 253 0 487 -3 520 -7 33 -4 78 -9 100 -12 81 -9 141 -16 178 -20 20 -3 54 -7 75 -9 40 -5 115 -16 147 -21 11 -2 40 -6 65 -10 77 -11 84 -13 138 -25 41 -9 52 -15 48 -28 -3 -10 -10 -37 -16 -62 -7 -25 -15 -52 -19 -60 -5 -8 -14 -38 -21 -67 l-13 -51 79 -75 c84 -79 518 -467 564 -504 24 -20 29 -32 35 -96 3 -41 10 -90 15 -110 l8 -37 -37 33 c-21 17 -107 93 -192 168 -85 74 -212 183 -284 242 -71 59 -153 128 -181 152 -38 33 -54 41 -61 32 -18 -24 -45 -119 -37 -126 5 -5 108 -90 229 -191 490 -407 582 -486 589 -513 3 -12 5 -130 5 -262 -1 -229 -8 -347 -21 -361 -4 -3 -30 12 -60 33 -29 22 -84 61 -123 88 -38 27 -97 68 -130 92 -164 118 -217 153 -227 147 -6 -4 -8 -2 -4 4 3 6 2 13 -3 16 -5 4 -12 2 -15 -3 -6 -10 130 -125 532 -448 l22 -18 -20 -135 c-11 -74 -23 -197 -27 -274 l-8 -139 -54 43 c-110 87 -609 458 -886 658 -49 36 -112 82 -140 103 -129 95 -209 148 -218 142 -6 -4 -3 -11 6 -17 8 -7 48 -42 89 -78 40 -36 114 -101 163 -144 50 -43 92 -81 95 -85 3 -3 95 -84 205 -180 394 -342 760 -663 767 -674 4 -5 8 -25 8 -43 0 -29 -12 -46 -85 -118 -47 -46 -91 -84 -98 -84 -7 0 -60 42 -117 92 -155 137 -320 274 -545 454 -283 226 -283 226 -290 214 -23 -37 -11 -214 18 -266 7 -12 122 -104 257 -206 316 -237 409 -309 416 -319 7 -12 -21 -16 -181 -29 -104 -9 -153 -9 -190 0 -74 17 -239 39 -248 33 -15 -9 4 -84 39 -157 19 -39 34 -83 34 -98 0 -15 5 -30 11 -34 13 -7 4 -66 -16 -104 -13 -25 -63 -56 -99 -62 -17 -3 -20 -10 -17 -58 2 -49 -1 -59 -29 -88 -16 -18 -30 -38 -30 -43 0 -20 -146 -166 -202 -202 -32 -21 -93 -51 -136 -67 -80 -31 -218 -64 -231 -55 -4 2 -23 0 -42 -5 -128 -35 -365 -27 -504 17 -136 43 -213 86 -303 169 -46 42 -81 82 -79 88 5 12 -15 43 -91 140 -24 30 -42 61 -40 68 3 7 -8 34 -23 59 -40 68 -56 165 -35 210 3 8 5 69 4 134 l-3 119 -45 8 c-51 9 -574 3 -635 -7 -39 -6 -48 -1 -362 207 -178 117 -352 231 -389 253 -36 22 -86 52 -110 67 l-44 28 0 87 c0 89 -11 179 -49 398 -23 137 -55 385 -49 390 2 2 57 -35 123 -82 150 -108 1224 -825 1312 -876 6 -4 14 -3 17 1 11 18 -1212 1006 -1402 1132 l-53 35 6 55 c8 66 30 179 47 237 l13 42 201 -152 c314 -238 524 -396 588 -442 49 -35 194 -143 565 -422 196 -147 272 -199 279 -190 5 7 20 31 33 55 16 31 32 45 51 49 41 8 46 20 53 113 5 76 4 86 -14 100 -10 8 -106 81 -213 162 -106 81 -285 218 -398 304 -447 340 -721 544 -840 626 -69 47 -150 103 -181 124 l-56 38 -6 70 c-3 39 -13 107 -22 151 -12 54 -15 102 -11 150 5 68 30 160 45 170 5 2 27 -12 50 -31 32 -28 42 -32 47 -20 3 8 -1 30 -9 48 -8 18 -20 53 -27 78 -7 25 -17 51 -22 57 -7 9 -5 14 8 19 11 3 28 10 39 14 25 12 94 29 159 41 28 5 60 12 71 14 11 3 36 7 55 10 19 3 80 12 135 21 124 20 182 26 355 38 52 4 95 8 96 9 4 4 224 7 224 3z m3005 -310 c44 -13 115 -38 159 -56 73 -31 80 -36 99 -79 27 -61 27 -129 -2 -220 l-23 -74 -71 69 c-155 149 -305 292 -373 355 l-71 66 101 -19 c56 -10 137 -29 181 -42z m-3942 -2590 c98 -64 179 -116 181 -116 2 0 50 -29 107 -65 57 -35 122 -75 144 -87 l40 -22 -30 -7 c-61 -14 -343 -9 -423 6 -97 20 -205 72 -270 130 -68 61 -77 100 -54 252 l16 111 56 -43 c30 -23 135 -95 233 -159z"/>
 <path d="M2883 2587 c-53 -15 -72 -32 -55 -49 9 -9 25 -9 70 0 32 7 97 12 145 12 84 0 111 10 89 32 -16 16 -199 19 -249 5z"/>
 <path d="M3195 1749 c-8 -12 68 -70 78 -60 5 5 7 21 5 37 -3 26 -7 29 -41 30 -21 1 -40 -2 -42 -7z"/>
 <path d="M3417 1753 c-2 -5 -3 -21 -2 -38 2 -25 6 -30 26 -27 13 1 33 11 43 22 20 19 19 20 -17 35 -42 17 -44 18 -50 8z"/>
 <path d="M2728 1725 c-9 -10 5 -67 18 -72 15 -6 86 56 78 69 -6 9 -87 11 -96 3z"/>
 <path d="M3354 1709 c-10 -17 13 -36 27 -22 12 12 4 33 -11 33 -5 0 -12 -5 -16 -11z"/>
 <path d="M2543 1700 c-31 -13 -29 -27 7 -45 27 -14 31 -14 36 -1 8 20 1 49 -11 52 -5 1 -20 -1 -32 -6z"/>
 <path d="M2664 1679 c-3 -6 0 -17 8 -25 13 -13 16 -13 27 0 7 8 10 20 6 26 -8 13 -32 13 -41 -1z"/>
 </g>

</svg>